<mxfile host="65bd71144e">
    <diagram id="a1z6N3ReIGgUhFNn2mlg" name="ページ1">
        <mxGraphModel dx="1611" dy="637" grid="1" gridSize="10" guides="1" tooltips="1" connect="1" arrows="1" fold="1" page="1" pageScale="1" pageWidth="827" pageHeight="1169" math="0" shadow="0">
            <root>
                <mxCell id="0"/>
                <mxCell id="1" parent="0"/>
                <mxCell id="3" value="迫る" style="whiteSpace=wrap;html=1;fillColor=#27005E;strokeColor=#3700CC;fontColor=#ffffff;align=right;" parent="1" vertex="1">
                    <mxGeometry x="20" y="140" width="670" height="60" as="geometry"/>
                </mxCell>
                <mxCell id="6" value="" style="whiteSpace=wrap;html=1;fillColor=#6a00ff;strokeColor=#3700CC;fontColor=#ffffff;" parent="1" vertex="1">
                    <mxGeometry x="30" y="150" width="320" height="40" as="geometry"/>
                </mxCell>
                <mxCell id="7" value="" style="whiteSpace=wrap;html=1;fillColor=#6a00ff;strokeColor=#3700CC;fontColor=#ffffff;" parent="1" vertex="1">
                    <mxGeometry x="360" y="150" width="290" height="40" as="geometry"/>
                </mxCell>
                <mxCell id="4" value="[記録的な大雨災害]&amp;nbsp;" style="whiteSpace=wrap;html=1;fillColor=#1ba1e2;strokeColor=#006EAF;fontColor=#ffffff;" parent="1" vertex="1">
                    <mxGeometry x="368" y="155" width="130" height="30" as="geometry"/>
                </mxCell>
                <mxCell id="9" value="[危険]&amp;nbsp;" style="whiteSpace=wrap;html=1;fillColor=#1ba1e2;strokeColor=#006EAF;fontColor=#ffffff;" parent="1" vertex="1">
                    <mxGeometry x="560" y="155" width="90" height="30" as="geometry"/>
                </mxCell>
                <mxCell id="10" value="[と]&amp;nbsp;" style="whiteSpace=wrap;html=1;fillColor=#647687;strokeColor=#314354;fontColor=#ffffff;" parent="1" vertex="1">
                    <mxGeometry x="511" y="155" width="40" height="30" as="geometry"/>
                </mxCell>
                <mxCell id="11" value="[和歌山那智勝浦町]&amp;nbsp;" style="whiteSpace=wrap;html=1;fillColor=#1ba1e2;strokeColor=#006EAF;fontColor=#ffffff;" parent="1" vertex="1">
                    <mxGeometry x="40" y="155" width="130" height="30" as="geometry"/>
                </mxCell>
                <mxCell id="12" value="串本町付近" style="whiteSpace=wrap;html=1;fillColor=#1ba1e2;strokeColor=#006EAF;fontColor=#ffffff;" parent="1" vertex="1">
                    <mxGeometry x="230" y="155" width="80" height="30" as="geometry"/>
                </mxCell>
                <mxCell id="13" value="[と]&amp;nbsp;" style="whiteSpace=wrap;html=1;fillColor=#647687;strokeColor=#314354;fontColor=#ffffff;" parent="1" vertex="1">
                    <mxGeometry x="180" y="155" width="40" height="30" as="geometry"/>
                </mxCell>
                <mxCell id="14" value="に&amp;nbsp;" style="whiteSpace=wrap;html=1;fillColor=#647687;strokeColor=#314354;fontColor=#ffffff;" parent="1" vertex="1">
                    <mxGeometry x="315" y="156" width="30" height="30" as="geometry"/>
                </mxCell>
                <mxCell id="15" value="&lt;div style=&quot;color: rgb(212 , 212 , 212) ; background-color: rgb(30 , 30 , 30) ; font-family: &amp;#34;consolas&amp;#34; , &amp;#34;courier new&amp;#34; , monospace ; font-size: 16px ; line-height: 22px&quot;&gt;&lt;span style=&quot;color: #ce9178&quot;&gt;和歌山 那智勝浦町と串本町付近に記録的な大雨 災害の危険迫る&lt;/span&gt;&lt;/div&gt;" style="text;html=1;align=center;verticalAlign=middle;resizable=0;points=[];autosize=1;strokeColor=none;fillColor=none;" parent="1" vertex="1">
                    <mxGeometry x="80" y="90" width="520" height="30" as="geometry"/>
                </mxCell>
                <mxCell id="17" value="web page" style="rounded=1;whiteSpace=wrap;html=1;fillColor=#fad7ac;strokeColor=#b46504;fontColor=#0D0D0D;" parent="1" vertex="1">
                    <mxGeometry x="60" y="565" width="120" height="60" as="geometry"/>
                </mxCell>
                <mxCell id="26" value="解析対象のhtmlを送信" style="edgeStyle=none;html=1;entryX=0;entryY=0.5;entryDx=0;entryDy=0;fontColor=#FFFFFF;endArrow=block;endFill=0;" parent="1" source="18" target="25" edge="1">
                    <mxGeometry relative="1" as="geometry"/>
                </mxCell>
                <mxCell id="29" value="解析結果を元にdomを書き変える" style="edgeStyle=none;html=1;fontColor=#FFFFFF;endArrow=block;endFill=0;" parent="1" source="18" target="17" edge="1">
                    <mxGeometry relative="1" as="geometry"/>
                </mxCell>
                <mxCell id="18" value="chrome拡張機能" style="rounded=1;whiteSpace=wrap;html=1;fillColor=#fad7ac;strokeColor=#b46504;fontColor=#0D0D0D;" parent="1" vertex="1">
                    <mxGeometry x="100" y="345" width="120" height="60" as="geometry"/>
                </mxCell>
                <mxCell id="27" style="edgeStyle=none;html=1;fontColor=#FFFFFF;endArrow=block;endFill=0;entryX=0.701;entryY=0.996;entryDx=0;entryDy=0;entryPerimeter=0;" parent="1" source="25" target="18" edge="1">
                    <mxGeometry relative="1" as="geometry">
                        <mxPoint x="200" y="414.9999999999999" as="targetPoint"/>
                        <Array as="points">
                            <mxPoint x="430" y="475"/>
                        </Array>
                    </mxGeometry>
                </mxCell>
                <mxCell id="28" value="解析結果&lt;br&gt;" style="edgeLabel;html=1;align=left;verticalAlign=middle;resizable=0;points=[];fontColor=#FFFFFF;" parent="27" vertex="1" connectable="0">
                    <mxGeometry x="-0.127" y="-1" relative="1" as="geometry">
                        <mxPoint x="-54" as="offset"/>
                    </mxGeometry>
                </mxCell>
                <mxCell id="31" value="" style="edgeStyle=none;html=1;fontColor=#FFFFFF;endArrow=block;endFill=0;" parent="1" source="25" target="30" edge="1">
                    <mxGeometry relative="1" as="geometry"/>
                </mxCell>
                <mxCell id="25" value="解析用サーバー" style="rounded=1;whiteSpace=wrap;html=1;fillColor=#fad7ac;strokeColor=#b46504;fontColor=#0D0D0D;" parent="1" vertex="1">
                    <mxGeometry x="440" y="405" width="120" height="60" as="geometry"/>
                </mxCell>
                <mxCell id="33" value="" style="edgeStyle=none;html=1;fontColor=#FFFFFF;endArrow=block;endFill=0;" parent="1" source="30" target="32" edge="1">
                    <mxGeometry relative="1" as="geometry"/>
                </mxCell>
                <mxCell id="30" value="htmlから解析できる形に整形" style="rounded=1;whiteSpace=wrap;html=1;fillColor=#fad7ac;strokeColor=#b46504;fontColor=#0D0D0D;" parent="1" vertex="1">
                    <mxGeometry x="630" y="385" width="120" height="60" as="geometry"/>
                </mxCell>
                <mxCell id="35" value="" style="edgeStyle=none;html=1;fontColor=#FFFFFF;endArrow=block;endFill=0;entryX=0.5;entryY=1;entryDx=0;entryDy=0;" parent="1" source="32" target="25" edge="1">
                    <mxGeometry relative="1" as="geometry">
                        <mxPoint x="770.090909090909" y="545" as="targetPoint"/>
                        <Array as="points">
                            <mxPoint x="670" y="545"/>
                        </Array>
                    </mxGeometry>
                </mxCell>
                <mxCell id="32" value="spacy" style="rounded=1;whiteSpace=wrap;html=1;fillColor=#fad7ac;strokeColor=#b46504;fontColor=#0D0D0D;" parent="1" vertex="1">
                    <mxGeometry x="690" y="485" width="120" height="60" as="geometry"/>
                </mxCell>
                <mxCell id="37" value="日本語が含まれない文は対象からはずす" style="text;html=1;align=left;verticalAlign=middle;resizable=0;points=[];autosize=1;strokeColor=none;fillColor=none;fontColor=#FFFFFF;" parent="1" vertex="1">
                    <mxGeometry x="630" y="345" width="230" height="20" as="geometry"/>
                </mxCell>
                <mxCell id="40" value="response&#10;" style="shape=image;verticalLabelPosition=bottom;labelBackgroundColor=#0D0D0D;verticalAlign=top;aspect=fixed;imageAspect=0;image=data:image/png,iVBORw0KGgoAAAANSUhEUgAAApwAAAIqCAYAAACJ2JrNAAAgAElEQVR4nOzdeVQT1x4H8C8ESCDsBBRQEXHHfQVRi4rWtmpttYu1tXZ5aq22Wte61LrXuu9LrfvSvqfWWlute1UEtVqtgtYFcCGENUAIJGTh/RFnzGQmJCCL2t/nHM8xN5OZ39y5c+eS3N+MQ4kut0SuUqD9pmise3kZ+jboDQAoLtbh0tVbaBhWC36+XiCEEEIIIaQ8HC0LCgs1yMtX2ywjhBBCCCHEHk6WBTm5KqgKChEcKENJSQmKdXqoCopQXKyDl6e0OmIkhBBCCCHPMN43nEE1/SDz88K1xCTodHrcTU4FAISFBld5cIQQQggh5NnHG3A6OjrC29MdDcJqwdlJhNrBAagR4AORiLcoIYQQQgghNvF+UgcAZ2cn+Pl4QVfHAF8fD7hKxFUdFyGEEEIIeU4IDjgBQCRyRHCgrCpjIYQQQgghzyHOgDM9IxPJzg/ghhLUQAl3SVdXoEZAVcZGCCGEEEKeAw7m9+FU/WiEc4orXizRY5exkLtkrx7A9o3VEyUhhBBCCHlmcb7hVBUUAEotCkp0gOHRgPPrqUDHdoA//bxOCCGEEELKzuocTlbL5kBMN8G3Cos0yMrOQ3CgDCKRqKJjI4QQQgghz4EnutdRUZEWqWlZMBiMFRUPIYQQQgh5ztDNNQkhhBBCSKWiASchhBBCCKlUNOAkhBBCCCGVigachBBCCCGkUtGAkxBCCCGEVCoacBJCCCGEkEpFA05CCCGEEFKpbN/4XUDK/TS4SsRwchLxymoE+FZYcIQQQggh5NlXrgGnVOoKtVqDwkINDAYD7j9Mh7OzMyQScUXHRwghhBBCnnG2B5zn4gGtBgisCXSKAAD4+3kDJbnIzVOhpATQaItRI8AXHu5ulR0vIYQQQgh5xggPON3cAFmA6f979pv+de/KDjgBwF/mDWdnEZLvKdCwfh24OJfry1JCCCGEEPKcEx4ldu4EbF3BLXN25i3m5emO5k3rceZyEkIIIYQQYo4z4Oxu1KKWoRiyP+OxfdDQ6oqJEEIIIYQ8RzgDzhffexOdHBpVVyxWqVQqrFqzAfn5KsT0iEaP7tHVHRIhhBBCCLETZ8DZ5PVX0blB7+qKxSq5XIErW3citFk4mn48FJ0H9q/ukAghhBBCiJ2eqUyfSRPGoG8f4QGxwWiETqeH2MUZDg4OVRwZIYQQQgix5rl50lBeXgGuJSRBp9NXdyiEEEIIIcTMczPgLCkpgd5gqO4wCCGEEEKIBZsDTkVGDpS5qqqIhRBCCCGEPIdszuEsLtZDoymGo6MjvDylVREThzxNgeMnTqFHj2gEBdas8u0TQgghhJAnwxtw6vUG6PWPf5oOkHnjYVomUu6noVGDOlWelHPp0hVMnvI1LsafQlAQDTgJIYQQQp41vAGnXJGNB6npnDKj0YiSEuBaQhJaNguDiwv/qUOEEEIIIYQI4Q04A2Te8HB35ZSlZypRVKRFvbqBcHKq2jspRUa0x+qVi/HpZ+MwafwYRES0r9LtE0IIIYSQJ8NLGpJIXODj7cH+0xbrIBG7oFawP7w83eHoWLX3uJTJ/NChfVtcuHAJmVnZVbptQgghhBDy5Gx+Xakr1kPqJoG/n3dVxFNmeflqODmJBMukbpJqiooQQgghhDBsDjhr1wqoijjKLT0jBy4uzhCLnVFSUgKNthhyRRY83d1owEkIIYQQ8hR45m/8HhYaDAC4m5wKnU6PawlJkPl5IbCmXzVHRgghhBBCgGdswDn967nYtuMHTplI5IiaAb6oHVwDzk4iNKhfG96e7nB0fKZ2jRBCCCHkuVW1Kefl5OnpgSlfjkdBQQHC6tXlvS+RuCDA3xvOTiL4+XhCJKLBJiGEEELI0+KZGHC6u0vx6Scfl7qMq0QM10BxFUVECCGEEELs9UwMOEn5KJVK5Chz4SQSITg4mJfNb7kco2bNGpC6udlcv0KRDnVhoeB7Ujc3yGQypKamQuYvs2t95vR6Q7k/W9r69AaD4Pu+Pt5wEYuhUKTz3rOsP3VhIbIys0qtU3uY15/5NpRKJbTaYk79FWu10GqLUbNmDc46bMWiUKRDLHaBi1gsuJytegFMx9Jyu/Zg9qM8n7XE7IePj0+511GW41ZZ9VLafth7LG3VAdOuynvc7FFa2zXvSxjWYjGvZ18fb/j4+AjWva0+DBCuv/Keq9XVdq3Vnz2Y+isPy/01j7k8fXFF1t+TKGu/oS4s5F0DhNquPe3KnjqoiH7NXub7Zu81vqLRgPM5tv67rViwcClq1qyBk0d/sdrwmeUYu3d8j94vxthc/9hxU3D4yDHB93r3isHSxfPQu89ALF00z671mcvKyir3Z0tbn9CAEgAmTRiLVi2bYdC7H/Hes6y/M2fOYez4KaXWqT3M6898G+u/24qrV69x6u/K1eu4evUadu/8nrMOW7GMHTcFLVs2R6uWzQSXs1UvgOlYWm7XHsx+lOezlpj9mDxxTLnXUZbjVln1Utp+2HssbdUB067Ke9zsUVrbNe9LGNZiMa/nSRPGYvLEMYJ1b6sPA4Trr7znanW1XWv1Zw+m/srDcn/NYy5PX1yR9fckytpvnDlzjncNEGq79rQre+qgIvo1e5nvm73X+IpGA047bdvxA27fvovZM6dW6nbi4y9i2Yq1WL1yEfz8fJ9oXVqNBrm5eXBzdYXRWMLZxvSv57Kvk5JS0LhRQ3bfWrVsbtf6J08cg48+fI9TNn3GXDRsEIbIyA74ZNQXmD9nBtq1bV3m2I3GEuTn5UOn05f5s0J8fLyxYe1yaLVabN/xA26ZHcvpM+ZCq9FAp9NDJBKZ6t7XVPfx5y9i7brvOfWn0+mRnJyCNwcNhVj8eBqHn68vVq9chGUr1iL+/EVeDO+9+zaGvPs2+1qtVqNfn5fQoEEYu43pM+Zi1+7/IV+lwpuDhiI5OQWTp86EKl+F8KaNeets17Y15s+ZgU9GfSH4JC61Wg2tRmN1Oaaex40dhYiO7RF/3qz9+fpi+44foCznNy5ajQZqtbrMn5s+Yy6v/q5cvYYLFy/h+IlTvOUjOra367zU6fTIz8vnHEtrKqtemONRnvgmTxyD/T//iukz5nLarmVdDXi9Hz768D34y/h36qio/sX83BeLxfDxMd2n+c03+qNd21acZa3VVXz8RSxYtAzz58yAu7sUsbHxmD5jLqZNGc+eq4DwOWhp244fEBd3ARvWLmdjAcp2zM2Vt+0KKe2YWxKqPwC89ieknkB+gz2mz5gLJ5EIkyeOQXZ2Dj4dPR7R0Z3Rq2d3zjES6seF2h9guqbkq1To2bu/1e3O/nqq4JMDt+34AdstkoMB+89zAOx+HD/5h2C/YdkXMyyvAUJtl2lrpfW7gOlYent74u13PuSdb5b1bIu1egbK1v/l5uax/68ONOC0U3JSCq5evVbp28nMysaZs+eg1RY/8bpiYqKRfO8+jh49wSmX+fshpkc0+/oYTsFVIuGWHT+FY8f5F/fGjRti6JB3AAB/Xb2GmzdvAQA8PDww+tNh8Jf5oV5oXQQHBeHY8VMICgoUPFHeHzIITRo3euJ9tJdYLEaXzpEAgNjYeCiVuez+rli57vFyLi7oEtUJQUE1AQBFRdwLxbHjp3Dh4iXMnDEFALB1224EBwcipkc03N3dIRaL2XZiXp9bt+1GclIKL656oXXRssXjAX6rls3h7i7FjZu3sHXbLrasSeOGqB9Wj/d5mcx0LFPlafj10BHsP/Ar5/0bN28hR5mLIo0GqoICHDt+CiKRCCOGfciJr2WL5ojpEY2iIg2nDmJj47Ej7r+YPOVr3raZY+7p6cF770kI1V9qahpbz+aOHT/FOy+ttd07d5OQr1Jh7jeL4OHuzntfqE1WVL3k56uwcvUGdOjQFt2iu9hRC3wtWzZHgVoNhSKDLROqq5ge0YJtBRDuX27c/Adbt+22ul3zemH2Q6VScZb59bff2eXqhXIHPrGx8bikvMIpO3b8FP44HYuYHt0enTtSuLpKoFBkQKstxukz59ht3LmbJBiXeSxnY+ORnp4BLy9PTiwABI+55TGyrANmfXPnL2aXY9pVZbV7wNQfWNYfAF77qwhM/YnFLugW3QUuYhcsWrISrVqa2nxSUgrvGFkSan+A6ZqSmprGKwcAlcq0XaEnB27Ztgv3Uu4jpkc0u9xr/fuiSeOG0Ol0nONhzY2b/2Db9h/QqmVztG7dgrfd1/r3FUw+Zlie5+Zt1zw+8363QK3m7Wu90LqI6RENg8HIfjHBtCFVQQF+PfQ79AY9UlLuAyi9P2WuC+aYa4+9XxA1adIQU78ch5WrN9i1fGmUuSpoi3WoGVC2P1ppwPmMkqcpcDY2DgDQOSoSQYH8Tsjb2xutW7WARCyGq+vjm+DXD6uHSRMef4WvKdLg0mXuBSE2Nh7bd/yAzlGRbFlC4g0kJt5kB5z79h1AUnIKfHy8kZSUgg/eH/xouZvw9vHGy717ISszG/v3H4SPjzfCmzZBkaYIx46fQlSnCDRp3AjyNAUuXfoLMT26cWIszdnY+Efr43/jZ01RkQbHjp9EkUaDhMSbkKcp8N89PwEw1WVbgc8kJN5EUnIK+vZ5iY1NmZsLlUqF5s2bAgDc3Fzh4+2N0NAQuEokEIlM83k6d4rg1HFsbLxgXAmJN1GoKUKRRoNffj0EHx/TunKUSnaZGjX8ERoaAoPRgF8OHmLrKiHxJpTKXHSOisCnn3yMbxcuw6XLVznrLywsRG5uLpKT7wEAXu7di90PexUWFrKfPxsbxx5LHx9vGEqZ49g0vDGUubmcmO0lVH9t27TilAHCbVdptr+MhMQbSEi8CQBYs3YjOkdFICgw0GI/i+yOz7S8/fVSUKDGmrXfYd2aZfD29mbbnrlLl69w2kF40ya8Nh7VKYL3Ocu6KqvCwiJefVm+zzAYDHjw4KHgN5Zlqb/Y2HgcOnwUEyd8jt8OHwEAhDdtgqhOEVAqcznbSE/PEFwHU6f16tVFcFAggoMCkXjjJtu/GI0lSEpOYfuhrEzTAEeelsb2V8zF3bwOmGPZpnVLPHjwkD2WTLuSuEqw/+eDkLhK2GNk3r9YkqcpIEm8KXjMgwID0Tnq8TFNSLyJhMQbvOUs24YQofZSGuZYNmnSCN7e3igsLII8TYEmjRvCzc2N7es6tG/D9muWOkdFILReXUR1imCvRwDg4+0NpTIXoaEhvP0Nb9oYWVk5nIEzU39XrvyNqKgIvDGgP+RyBTZv2YkBr/VD3z69cenyFaxYtR77fz6ImJhuvGve2dh4yNPSkJaWDqUyFxPHf87WlTxNgWPHTqL/q30w+tNhaNuG/y2ypbOP+uzOURGc+Hy8vWEwGvDb4SPw9/fD7dt3EBsbD4lEwjmWgOlaW/+Tx3/8mV9Xmb44OfmeYJs0N+D1fry66tWzG6KiIjjvlcbNzQ0NG9RH/1f7WP2jhWl/pi+grPfZeflqFKgLK37AWVysg6Oj4xMlR1SU6opFoUhHjjIX6sJC3Lt3v9RJ/UIT6QH7JrQrlUooFOnQGwy4d/8+vLw9rU7svXTpCt4a9AEA4MBPPyCoT2/eMsdPnEJCwg1sWLecU245MZrZt7tJyQDAzklp26YVfty9mV1u5qxveBf3Ht2j0Sy8Cb6eNZ8tO3biFLy9vdjP9uv/Ntq2aYXx4z9DQsINpKdnQip1Y/djxMixuBh/Cq6u9v3l/u3CZWjbphXCv5ps1/KA6a/b+QuWIiMjEzmPJnNPmToLAJCmSEffV7j1p1CkY8+e/UiVp3Hq740B/eHn64thIz5nP3vp8hX8eugIWrZoho4d2tkdE2CqK3GsGKp8FeYvWAInkRMbX1i9UADAqtXfQSx2ga+PDwIC/NGxQzu4ukpw/MQpXLhwCbVrBSE4OBgTJ4zhJR0MG/E5moU3xWejh7NlQhPGFYp03E1K5rS/Ik0RcpS5nHbAHMsZdtT9GwP6QyKWYMTIMezxtTeRLUeZy7ZHwNRmLcuY5YS2+8aAxz/lKRTpWL9hM7JzNpvOt1pBGDH8I7zcO8auBJwnrRd1YSHu3b/PJsEcP3EKK1auF1zOvB18Nnq4XQMIoXph2JNsY3mel8bDwwNfThpb5oQeSz6+3sjNzcPEyV8h9aEcMn8Zvpw0FnXr1kGOUokJ4z9jlz1x4jSmzZjD1r1lcszE8WPQ91H/J5cr0D7C9E0T0/9Z7tsvBw9jxEjuAN2eY8m0q4yMTPQfMBgZGZnsMTLvXyylKdKRlJyCy39d5b3XvVtXziBlz579+HbxCgQKJKmYtw2hbUwc91mZ+kQfH2+sW7MUw0Z8jlxlLoYP+wALv5mF/gMGQ+TkhJd7x8DP1xdfTp2JGjUCEB7ehNdvTHz0h86Jk6fZ/hQAr481398N65Zj3ZrH81TVhYVISLiBOfMWYf7cGejeratgvG3btOLFZ94Otm3fjRMnTyOiYzvM/HoKcpRK9g93pg3t37sT3t5evPPFvE9kzvN1679Hhw5t8dmoEcjIyMT8BUsxZ9Y0XE9IxOdjJ7N9yabvVuN6QiK2bd/NG3Ba2w972qQQe+tKyM2bt7Buw2bs37sTAQH+gsvs2bMfX8/+BkGBNct0TbaXzQHn3eRUSKWuqFOrerPNqjOWseOmYP+BgzAYjOjdZ2Cpk/qFJtID9k1oX//dVsyZ9y2KijTo/coA/Lhr8xNN7B328VDBb6AsJ0ZrNBoYDEa062jqqHfvsH+i94aNmyESieDl6cmWDf/PUEybMkFwu2O+mIyff/oB9Sz+8q1sMpkfDv+6B0ZjCRYsXIorV6+z+ymUKDR23BQ0btQASxfP473XpXMk/jx/iv3s4d+PoWuXTvhx1ya4C/xUW5rh/xmKli2aY+z4KTh8cC9q1qwhGF+rls0wacJYODo6sNsY9vFQBAcFcdqkZdKBWl2Ic3HnsW3H458LhSaMjx3/JZydnaHT6dj25+joCI1Gg549upVpn0pjbyLbho2bOTEL7QcAu+Jjj+WieWw9T5sxBw8epNpOwKmAejlz5hzeeucDFBSY5gQO+3gohrw7iLfc4d+PcdqBRGLfbd4s68qcPck2ZVHehB5LTB0oFOno1rMvli6ah/6vvoJTf5zlnY+WdW9vcoy1/u9JmfclzDEyL7Nkfv5acnbmX4K7dunE64Mt24bQNspr6eJ5WLR4JcaOm4Kd27/D4V/34MP/jMKDB6kYN/ZTbNuyHq++9jaWLfnG6vXIvE8EwOvDGEL7W5brAlPPTHzm7WDp4nnQ6fQ4fuIP9lrGsGxDlsz7xKysbPR+ZQA2fbcar7zci7NdV1dXdIrsgAB/f/Z4hIWFolNkh0ppa5ae5BrapXMkDv+6p8zXqIpkx7PUayArOw/J99MQWifQ1uKVqrpimTxpLFzELrh9+w6+/WY271uR7OwcjBw1Dt27dcXHHw0BABQUFGDEp2MxacJYREa0R7u2rfHN3Bls2e3bd3Au/gK+W7eCXd9bb7wGg16PpSvWYM3KxaUm20RGtMex338GALRs0UxwGYlE+Ovwdm1bY8+P29jXpoSoO5g9cxq7vvPn/7RZL7NnTcPnn30CwDRHkpkULRFLIJXy5/u0a9saGzesQt2QOnB2dra5/ork6OgIz0eDYolYAmcnJ3h7ewEAnJ34p8HkSWOxf/9B9q9ac87OzjAYDBg5ahz693sF478YjTt3kvCf4Z9jzarFAICtO3bjjNlPTFf/vi74Mw5TV0qlEv8Z8ZlprmlUJPr3ewXDPxmDNasW45t5X2P//oMY+NYQ+Pn6Ys2qxfDz84VEIsELXaM4bUir0aBJ44bssZw+Yw4aNKiPIe++bWqno8cJThj/cuIXiIhoj/j4i2z78/PzxbYdP0CZo+QtXxbZOTl4652h7L7t+XHbo0QT4W8XzdsVw3w/LMkEkmPMMckfUqkUjg4O8PT0RLG22K5Ejietl23bd7Pn+cjR4wCYzkuhc9M8PqZtAo/7l+ycHACmJAHzNvnmG69z6sW8rkqr5/Lw8fHBd+tWsAk9ADjb2LZ9N+9pcEnJKWjWtAmnjKmDwsIiODo4QCqVQiKR2OybAAjOcRQikUgQF38Ry5avYc+Z0jD1/MrLLwomcmzbvhu3bt/FnFnT2L6EYd6/WK6vf79XoFCkY9GSlby+RIizkxPbv4z5fCQiI9pz2saiJSvRsEEYhrw3iPOZ8pJKpRjy3iDkq1RQKnMxctQ49OzRDb16doezszPqhtTBxg2r0LhRA6vr+PPSFUyfMYd9nZScApWqAAPfGsJZzrLtAqYEFpWqAB7u7javC0w9C52/zDXHxcUFIpGIPVftYX4N9fHxxpqVi3H0+Emo1WoMeW8Qu91pX81B/PmLyMrK5vTZQ959m3M8mOUAcPpsAIg7fxExL77K2X6WwHxWS9u278aSZauRcu8+Ph42ipewaquNOzs726zfIe8NQufOkZzreUXitVJlrgrKXO6E8DyVGrpiPRwdHFErSGZ1PkdFe1piadmiGerVDYEyRyn4lblWW4yzsXF4d/Bb6NH9BQCmn3ZGjhrHNiSZzA/t27Vly5KT70GemsZZX2hoCFq0aAaxiws6R0WWeiGVyfzYbZWV+We3bN2Fu3eTkJGZhbj4i/hs1HC7J8P/9dffuHHzH/b1LwcPIfHmP8hRKhESUgdD33+Ht93ONgYHlSU/X4UVq9ZDpVIh9lw8FOkZmPTlDABA4s1/eIPBli2aoaBAjZOnzmDOvEVsvRw9dhLHjp+Co6MDWrdugZge0QgLC0XdkDowGE2Tw4e+P5iX6NCrZ3fB+XdHj5/E39cTIBaL8cILneHp4YGoThHIyVHibGwctNpiNhZXN1c2MYkhVKcZmVk48ihRLCMzC46Ojjhy9AQKCgo4AwVzLVo0Q4/uL6CwsIhtf0FBNXH2bBwulXPAefTYSWzZtpO3b1GdOgoub36MLJnvh5BfDh7mtV1mfR06tEO36C7IMduPoe8PxrVrCdiydRevnZp70noJC6sHd3d3RHRsD7GLC1t+48Y/2PvTL3adb0z9FTxK+vr77+uc9+vVDeH0BctXrOWVVRStVotTf5zlHCMPDw+0aB4Osdjl0Xw0BTvPm2GZxMScRwUFBchXqbBl205IJGLUCg7i9ENnz8ZBmaPk9FdGo5EzN3DLtp3s/EFmfYwAfxlat26BRUtWYMi7g9CkifVERfN+3HLuIWCaa2dZ96XX1eP1KRTpZfosc8x/O/Q7CgoKOO+1ad3SrrZrry1bdyE4OBA9Y7pBLlfw6kAsdkHnqAjOcpYC/GWcQfqx46fwMFXOG7hbS2araObnKtPWLDVp3Eiw/pjPOjk58er577+vw9HREa1bt0Byyj288EJn7PvpF94c6DatW8LT0wM3bv6DI0dOcJL0/C3qCgC7nDVbtu7Cxk1bUazTYdbX/Ix0o9FoVxu3JTQ0RLDtVxTegFOvN0BjkSFt0BtgMBqhLS5GSdnuLvFEnqZY7HH2XByKNKaJ88pHmcHmXF0l6NvnJSQlm7KV7ZnvUdn2/XQAsefOIyiwJm7fuctOyLZHRkYGm2HHKCosQm5uHjIyuBP9ExJv4mxsfLXts8FgwMOHqVAqc5Gbm4eiwiI29iIryQ5RnToiJ0eJESPH4MOh78LT0wO5eXlISbkPiasETRo3wqW/ruDSX6Z5rTKZL5sAUbduHQCwOfk6NzcPDg4OcJdKMXL4x0hKTkGqXC6YJNApsqNg/TGTyNs++kbcct9yc00xF2mKquRnH8A04f7cufNwEjlh0FsDMW7MKKvJDoyCAjXWrtuIevXq8hJ6zPfDEjPhnjlGlutbt2YZojp1xC8HD7Pvvf5aXxiMBsTGxuOXgz5lTmqyFzO4lssVnPLCoiLO+SaU9Mdwd5di5AjTT6ZFhUW8edRPqiyJe+bnEcMySap+vVBMHP95qethziOmTWZkZCI3Lw++vj6C/RCbtHH1b0jdufMIMzIy2XmNlm08LCwUQ94dhPYR0egUGWH1YixPU+DY8ZOmY1EBWeCW69Noy5ZAxxzzbxcuQ25eHiTix8szbVforhdlUVqd2rsck6gDPO7zAMDbyws5OUpOGQDoDXo2ecpasmtFO3fuPHbs/JGXAHvjxj+lDthff60vrl1LwL6fDnCW8/byQkCAP0QiEWrXCoabq6vgZwHTH8KWA0mh80NoOYBb98FBQejX5yXBc0upzMWXU2fiyLGTMJaUlCl5rCrxBpz+Mm/4yx5fGIqLdZArslFcrEPDsNpVGtzTFIs9tm3/AXv3HmBf+/r4sMkxwOMJ91Onz0aD+tyfRMrqSZ8awDw9wtPTAz4+3pwJ2bVqBdu1jiHvDcKAAaafBpjEgdcHDkbbNq0wccIYzjZ+O3wUGo0GnaP491erCswEeeBx8pN5koC9mMQBJjnBWFJite7VhYVwdHAodfL1GwP6o02bVuyEcWbiu2WSQI5Sic6dIgTrT6nMxYiRY7FuzTIApltXzZv7FQBu0lBGRibOX7gkGEdpyTFlwRxzZsK9vcko5syTQBilJeUITbhXFxbiYWoqatUK5pyD5pgEsNKSIiqqXixZnm9lvfByzl/f0gfytpQlcc9a0pCHR9luERTT/QV0iYqE0ViC9hHRmDh+DDpHdYRWW8zrh9SFhbh2PcFqooS1pCE2PicRQkLqWG0HTB18OXUmLsaf4gw4zZ96VJZjbrm+tm1a8RLoSsNs99NPh0Hq5sb5Y0mhSEdM9xfgM8D6PS7twSQ6zZk1Dd27deWcM6af15Xw8fHhLWeO6a+ssUwaMrdh3XKr7d6e87cszBN1FIp0zF+wFMnJZR+w16xZAydOnsaZ2DhO/1yWc9A8QZdh7QETQsfIPLmX6a+Y61u//m8jV5lbpuQxc/YmdZaXXUlDrq4ShIXaNwipTE9TLEKEnsRgfrIwE+7nzJyG69cTMXbclHI/ieFJnxpgHkvt2sFISLjJmRh95sw5m+sQSpKytY3nTfeP2ZcAACAASURBVGlP3zj8+zGMm1C2BwUwE98tkwQWLFxqd/2dORvHTpo3T7YxGo1s4oqlikoaMj/mzIT76mDv5PounSNLTYqozGQq8/OtrKqrnisqaYh5CsvihXN5ZUziCtMPnTkbhyFDh5c72bAi6lmhSK/wBDp7tivUv1TU02ks68X8nJk6fRablFNa/TH9VXmUNpCszARTJgm4PMfSWv9sb4IfwO2fGTqdjpN4yxA6RpX5tCB7kzrLy66kISeRCCIRP7Orqj1NsQiRSqXsZH9mwjgz6Rt4/PQSl0dzuZ7kSRZP+tQA81iYn2uEJr6XRq1Wo1/fl9GwfhjWrNvIy9A038awjz/AkaMn8NagD+yawF9Zpn01B85OTphtY/I+M+m7fv16+HH3FqvxfvPtUmzctE3wPXsmgltiJr5bJpCY/6RmLi7+IhYsXIo1qxYjMqI9Ll++gnZtW5WaNGTOz88XP+7eYnVuJ2A7Kcccp11ZSVqzZfqMOVi+ci2n7Orf13E98QYnEYthWc9Mog6ToDZz9gJ2or95AhMz0Z9Jitix60dkZGRiyHuDKrxehJT1fDNXEfX8JNsdP3Y0m0wldO7bIvQkH6aMSVwZ8/lIAEC7tqb7r0768is2CbMs7KnnyIj2vPOcObe+mTsD7u7u2LbjB/x26IjNPoxpf5bri4xojzWrFmPk6C9s7geTnMW0SfPELyahcdpXc+xKQrLGvF4sz5npUydytmGt/pj+Ki7+IidpyBqhpCGherGWSGRPYpdQ3ZubPGksPv5oiNXz1zLJ0fxaIZVK2W2sW70Ek6d+XaY2ySTlCBFK1BE6RkxS3f/27mf7q4pi7emEAKDT63H77kPUCvIXLPP04CcKW7I54HSXlv2vwspSnbHExHSDyMmJTTQZOuQddj6Qp6cHpk6ZgAsX/2QnrzNJJQH+MgCmJIFtO3Zj9KjhaNqkEXx9fSBycuIkpABA0yaNMHrUcKxcvQ5GYwliekQLTtJu2qQRFsyfyf6/LCxjuWxlTljizX/Y/QWA2HPx8LXIeL17N4k3qV1oG6GhIQgKCmQTYarL34+yxa1l9jOYSd/1w+qVOu+0desWVp+YZG0ieGnJLIApoeLCxT8xdcoEmwklWVnZuHjxMtasXMJ2oDK/x0lh5gkkcrmCk7gCPE4IeBow55FQe5KnKVArOEjwySUA4O7uztYVk6jD7Jf5BH5mor+nhwfCHiUwMHWQkZGJGjUCOGVPky1bTU+e6tChHVauXseeW5aGvj+Y3Q97WPY5vPWZ9XUM82Qqe1gmScXEdEPz5uGP923bTrRoFo4OHdph0ZIVnL7T1J6jkSpXsEk05n1iaUlD9hJKvjM/t5hEMX8bSUhbtu7CvXv30SumO6/9mJI1re+HOcs2ad5HMEmE1m6IX1ZCMZsnTQpd8yxlZWXj4p+XMXrUcHhamV4hlPAG8Otl/88H4eLizOv/mGsKk6xpLbHLMhnXknnfz/TFA17ry+6bZZKj+fLmdWXrWDL9OHNuMe2lvEk5zL4xfXteXj6b1PT6a30515TyionpxianWl57HB0c4e3pjhxlPpR5BdAV6/EwNQPuUlfB210JoScN2SmqU0dIJGIsXLQCgGnSP4Od4L1oOS4/etKLj483Jo4fwyZKFBYVITc3ny0LCwuFRCLGxu+38Sa5D//PB5gybRaUylzk5eULxhMWZntivjWWsQgJD2+Cdm1a4969B2xZreBgtGnTkn3duXMku789Y7rh6PGTkKcpIE68Ae+jXrxtBAXVZJfr2SMaQUGmxJAijQYHDv7GiYVJujobG4fCokJObNaeDFSaoiINjh47iXr1QhEe3gRyeRr7bRlTZo6Z9G1LgL8/QkKE5xNnZ+cIlpsns3h7eeLAL7+x7505G4dz587Dw8MDH7w/GEePnWQT0Sz/Mk5IuIGkpGT06/uyzSQEuTwNBw4eEnwSii3mdWWr7l1dJejX92UkJSXjx//ts76cxBU9Y7jJE+bJMZbOno0zzQ22o81bZsFbTuAfOfxjwcQQe485oyz1YktCwg3Ok1rMMW33ytVrpie7hIZg5ar1aNy4Ef68/Bf+vPwX7zMPU1Px4//2CdazJcs+x5J5X8dgzsvLFk+2Cg9vAmVuHu/YX758FTt2/sgmdnl7eeJhaqqpL4jpBo1Gi/DwJggNDcHG77dh4vgxuJ5wA9cfPXXHvI9l+kSmrSmVuZx+6pWXXhQ8vmfOxkGelgZFWrpd54x5f8X8ZDp0yDv4z0fvY8q0WZx6sTxG1tqS+X6cO3ceEomEfeSuEPO2ay6qU0fI5WlsPZe1/Zm3XWsxW17zjhw9gb+vJyAoMFAwZpFIhFrBQVavKV5entBqhH8xsLyGtmnTku0LzI9badetM2cfPXnPIjZrbRIwXWeWLFuFli2asQNOJoHT8klIQsfX2rE078eZ9sLUny1doiLZa6Ot/bieeAO//HoYDo4OuHPnLkaPGm7XU5SsierU0epdREQiRwQFyvAgNYNN3tbrDagdXMPuuZ404CyDtm1a4Yddm6y+X9rFsG2bVryGIFQGmAara1cvKX+gNlhu18fXB4EWk7cHDngVAwe8avlRDvP9zcjIxGsD30VeXj6uXLkGXx8frF+7jLfdb7+ZhdcGvovatYIRFBQIqdQNfr6+WLxkFW/9fr6+2PfTL9j30y+893x8y3ZvQZVKhQULl2H2zKno3q0rTpw8jWnTTT8BrV+7jC2rWzfErpPHyUmEunVDrMbHEFof81mp1A3HT57Gvp9+YZfbsfNHhIc3wWejTEk+CxYuQ0ZGJkaPGo7PRg3nrOf4ydNIvPEPp54tj2VgYE34+Prg5j+3sXjJKvj5+pZ5Ev7Nf26zdcVswxqm7Q7/ZAxWrfnO6nIBAf6I6NjO7sxwZj+ehFTqZvfxtUdZ6sX8mAuxbAfmLNsuAPY8EnqyjTnLerZWB/b2OULt3nx9Awe8Cl9fHwz/hD+/0Hy54ydPY+Wq9QgI8MdPe3ZwnnzC9E07dv6IK1eucRJVzPucsvaTO3b+iBMnT6N7t668vkmIeX9leQ5ablfoGJVm4vjPsWLVeuzY+SNn8CbUFwPCx60s7c+S+WeZ/k+I+TWPOae7d+vKG3CW1o+bs1U3QtdQe4+bed9prrQ2CYDTJ1o7P0o7vkLH0jIWe/pExvq1ywQHnKXtx4bvtvDOo8pSOzgAjo4OUBdq0KCMydsOJbrcErlKgfaborHu5WXo24D/iETyfDM9acggeLN2e5kSUgrYn+ScnZ0E18cs5+rqyiZjqNWFvOVskUjEZZq7Vtp2pVI3s8SQIri7uws+jUJofbbmrjFPBjJfn3ksBoMBGo2WXa6oqAgikQgSiYSzDaH9FTpulmVqtRoikQgikYi3v/ayPEb21L1arS51brFQvdhaH1Mv5VWW42vv+uytF8v2Z0mj0XDagbX2wny2vO3vSetAaLtC2xA6p82XK21/GUwbstaXlFV51mfrHLRcztrxFWLP+csQOm7lOS/N11fW/qC0+rO3Hy/PsbT3uJXWR9iKz9Y1wJ7zV6jfNY/FVp9oGYsQe86tqmA0GlFSgjLn09CAkxBCCCGEVCr6Sf0ZZv5kFmvJRYQQQggh1e3pvL8QsQuTfBIXf8FqchEhhBBCSHWjbzifAxPGfc57MgvDYDBCp9dD7OIMBweHKo6MEEIIIYS+4Xzu5eUX4FrC3XI/DYIQQggh5EnRgPM5V1JSAr3BWN1hEEIIIeRfzOaAU5GRA2Vu2Z/cUBkoFkIIIYSQZ4/NOZw6nR4aTTEcHR3g5eleFTFRLHaQy9Nw9Pgp9IzpJvhUDUIIIYSQpwXvG0693oAijZb9J/Pzgl5vQMp9BTTaYpSUlH6j4YpEsVh36fJVTJk6E/PmzHiiR1kRQgghhFQ23jecckUWHjzM4JQZS0x3lb+WcBctm9WHi4v9Tyl5EhQLIYQQQsizjzfgDJD5wNOD+/goRUYOioq0qFc3CE5OVXcnJYrFusiI9li7egk+GfUFJk8cg8iIDlW6fUIIIYQQe/FGSRKJCyQSF/a1Ij0HErELZL5e8PJ88ufZlgXFYp1M5od2bdvgk0+/QFZWTpVvnxBCCCHEXraThvR6SN0kkPl5VUU8FEsFycsv4H3rypRJ3STVFBUhhBBC/o1sDjhrBwdURRx2oVjsl56phIuzM8QuzigpKYFGUwy5IhueHm404CSEEEJIlaIbvz+nwkKDAQB3klOh0+nxd+JdyPy8EFhDVs2REUIIIeTfhgacz4FpX83G1u27OWUiR0fUDPBFSO0acHZyQqP6deDt6Q5HR3qeOiGEEEKqVtWmVpMK5enpgWlTJ6CgQI0G9evx3pdIXOAv84aTkwi+Pp4QiejvC0IIIYRUPRpwPsPc3aX4ZPhHpS7jKhHDtaa4iiIihBBCCOGjASchAtLSFFAXFkLq5obAQO6jQ9XqQmRmZqFWLev3X83JUUKr1fI+Wxn0ej0ePpRDb9DD18cHvr4+lb5NQgghpCzoN1ZCBIwdPwXtOkZj7PgpvPfOnD2H3n0GICsr2+rnN2zcIvjZypCVlY3efQagXcdobNi4pUq2SQghhJQFfcNJnsjW7btx+/YdzJk1vVK3Exd/AUuXr8HaVUvg5+dbqdsCgEJ1IfLy8lGoLuS9165ta3w7fyaGjxwr+JSnaV/NhrOTM6ZMHmdzO1u378Y2i4Qvhp+fr137azSWQJWvQl5ePrQarc1tEkIIIVWNBpzkiaQk38PffydU+naysnIQGxsPrba40rcFAEOHDoZGKzx4k8n80L3bC0iVpyHA3x8AkHjjH2zZuhMAsO+nX1CjRgDUhY8Hq0PfH4ymTRrx1tWgfj30fjGGU3b02EmkpsoxcMCrEIttz79lksdWrd5Q6nIGgwEP5Vnw9/OCG92LlRBCSBWiASd5rsjlaTh99hwAoGvnTggKCizXevxlfoiK7Ag3qZvg+5YJW3fvJmPVmg3o1bM72rdrDQB48OAhijQaHDl6Al06dxIccHaK7IhOkR3Z12fOnkOhuhBuUjebCWEMkUiEoMBA9OrZHeHNmlhdzmAwQq7IgrtUQgNOQgghVcrmgLO4WAcHRwc4W0mOqEoUy9MVizxNgewcJdSFhUhOvofatYMFk2jkaQqo1WoAgJPIibOcWq1GRkZWqWXZOUqkpaVBbzAgOSUFXl4ekEqFn19/6fJVDBpsGqgd+OmHcg84d+z6L5qFN8HoT4fb/Rkfb2+sWbkEQUGPE4XkcgXaR0Tb/Kxer8eDB6lY/90WdOzQtkzbValUWLh4BWZ9PQXdu3W1+3OEEEJIVbGZNHQnORVpCuvJEVWJYhFWXbGMHfclNmzcgtNnTEk0mVaSaMaO+xLtOkajXcdo3nKnz8bZLNvwnSkBJzMzCy+9MhCnz8ZV7o4BWLpoPoZ9PLTSt8PIfJT483r/PmXerr+/DId+3YOuXTpVUnSEEELIk7H5lVhIrRrIzM5D8r00hIaU79uiikKxPF2xTP1yPFwlEty6fRcLF8yCrw/3djzZ2Tn4ZNQX6NH9BQz/zwcAgIKCAowwS7Zp37Y1Fn4ziy27dfsu4uIuYNN3q9j1vf3W6zAajVi6fDXWrlqC9m1bW40pMqI9jh85AABo0Ty83Pvm5uYqWG6Z5DNn1jQ2aSg7JwdvDhoKsdiFfV+rLUZ2Tk6p24qLv4AJk77CvXv3MXP2Aqxeu5Hzvvk2hDg4OMDD3d3mPhFCCCHVhTfgVOaqoMxVccry8tXQ6fRwdHRErSAZRCJRlQRHsTzdsbRoHo7QuiHIyVEiqlME732tthixsfF4b/Db7E+9crkCn3z6BbKyTIMwmcwP7dq2YctSku9BLk/jrC+0bghaNA+H2MUFUZ0iIJP5WY3JlNBTeT8rM0k++fkqrFi1jt0PABCLxegW3QWenh5sWX6+CteuW0+qOnrsJNau34Rr1xMwYdznnM8yfv3tCAoK1OgZ061id4YQQgipIrwBp95g4GUCGwwGGIxGFBfrUFJSZbFRLM9ALPY4c/Yc1IWmOZxKZS6KNBrO+66uErza72XcTUoGAHR5in8aZpJ85HIFNm3eznnPXWpKJLKcw2m5HOPM2XM4d+48xC7OGDzoDXwx5lP4+Hjzllu4eAXOnTsPiUSMLp2f3rohhBBCrOENOP39vOHv9/iiV1ysg1yRjWKdDg3CalVpcBTL0x+LPXbu+i/2//wr+1rm5wepWfa3h4c7Joz7HNO/nosGYfUw+J03y70ttVoNeZoCABAUWNNqclFlYJKamME1AGRkZEJvMAguzyQm7d65iU0aysrOhq+vL/zMnhY0YdxnmDnrGyxctIIGnIQQQp5JNudw3klOhZurBPVDg6siHorlGY9FyJLF8/GSxb0mzedIMgkz8+d8hWvXEjF23Jf4cdfmcm3r9Nk4vP2Oab7oD7s287ZbmZikJgdHB7asxFiCArVacPmli+ZDJDLl7TF1oFCkY/LEL/DlpLFVEjMhhBBSFexKGhKJRHB0rP6nYFIsT38sQtxcXdm5idnZORjx6Vh8MeZTNhGmxFiCAlUBnJ1NyTZFhUXl3pZep0d+vor9f1WJjOzAJisJaS6QwMQMuuPiL2D+gqVYuGA2PNzdcfp0LKZOn425syvm6U2KjBwUFWkRHCjjlVV3whshhJB/B4cSXW6JXKVA+03RWPfyMvRt0Lu6YyLPkHNxF3Dy1Gnk5uYBAD4YOhhNmzQGABQUqLFj1494+DCVnXPq6OgIPz9fDHi9H8LqhSLxxk1s3babLUtPz8TJU6dhNBrx+ehP2IHq3aRk7N13ANnZOTAajegZ0w29enbnxXM3KRk/7T8IAHitfx+E1Qut8H02jzk/Px9du0QJxmKvXw4exoiRY3Ax/hSCgmqydcrUwZ59P+PB/Ydo0aIZXuvfp8zrz1epkZtXAK22GOmZSvh4e0Dq5gp3qStkfl7ljpsQQgixV/XftZw80zpFdoBELMbCxcsBAJqix4+DdHeXYsSwD7Fw8QpcvnwFAODj443JE8eyyTGaIi1UKhVbFlYvFBKxGBs3bYXBbO5jWL1Q/Oej9zF1+iwolbnIV3Gz9M2XG//F6MraXVxPuIFjx0+xMW/ctA1xcReQo1Ta/Gyz8KZoFs5/ElBwkOkpQUeOnYBEYnqUZV5ePjZu2gaZzA+3bt1BVFREuQabAODpIYWjgwNSHqSjpATQ6fSQSiU02CSEEFJl6BtOQspg5er1uJ5wA+vXLOOUrVxV+nPMAWD0qGFWnyCUkZGJ1994DxkZmbz31q1ZWiG3etLp9Ei4mYy6dQLh7UX37SSEEFJ1aMBJSBlotVoYDEZO0pNWq+XdpkqIWOwCsVgs+F5JiSm5qMTIv6eVm5ur4CNDy8NgMMLR0QEODg62FyaEEEIqCP2kTkgZCA0YxWKx1YGkvarqaUFMVjwhhBBSlWjASchTbtOWHbhx4x8AgKenByeZihBCCHkW0NcdpNIUFRVh/4FfkSpPs2v502fO4fr1xCpb37Ni//6DOHzkOFJT5VAo0jnJVIQQQsizgAacpNIolXn4dNQ4XL581a7lFy1egb37rN/LsqLX9ywZ+Fo/7NrxPVavXCz4+EvA9MQpnb7q7j1KCCGE2IsGnIQ8J+4kpyJNkV3dYRBCCCE8NOAkT425s6fj/SGDqjuMChMXfwHde/ZF9559ERd/odK3ZzQaYRTIcieEEEKqm82kIUV6DsRiZ/h4V3+SAsXy9MVy5OgJHD12kn1t/qQhoeVKS3q5eOkv1AoOQt26IU8UC7MNIZu27ECt4CDUqhWEzVt28mLOz1dh+cq17OMxmzRphA+HvsvZxsNUOQa+/iq7nLWnHmVl5eDkqTPs/wkhhJB/K5sDTp1eD422GI6ODvDyrN6bRVMsT1csp8+cQ1zcBaSmytmyI0dPwGgwolmzpmbLxcJdKkVqqhxZ2RLs/ekAevXsjuAg7nO89+8/iLZtWpXrMZHmsTDbSJWnoW2bVrxtuIhd0Dkqgo1bozE9HSlVnoYjR08gKfketBoNAECv12P/gV/xYs/ucHV1RVzcBRw4eAgODg7scnFxFyCRSNC1SyfOtoKDAzHorQHs/wkhhJB/K96AU6fXQ697nAUr8/VCalomUu4r0Kh+HYjFzlV202iK5emOZdHiFWjbphV27fieLRvx6ViIRE6cAeeuH/Zg8sSx2LXje8jlCrSPiIbMz4834KyoWDIyMjHgzffwz607gsue+uMsZDI/TtwAcPnyVUybPpt9pjnAfc65q6vpZu//3LqDTZu3Y+9/tyMgwB8zZ32DRYtX8AacbVq35G2DEEII+TfiDTjTFNm4/zCdU8bMC/s78S5aNasPFxfnKgmOYnn6Y7G0dNE8OIpEvLJXX32lymLw95fh0MG9eHPQ+4LvD/t4KKZPnVDu9XftEon/7t4KqdSt3OsghBBC/k14A84AmQ88PaScMkVGDoqKtAirG1Rhj9izB8Xy9MdiifkW0LJM7OJSZTE4ODjA3V0KJ5FwPYhdXATjBIDs7By88fb7EItN8WZl8+deOomc4O4u5ZUTQgghRBjviiyRuEAieTw4UKTnQCJ2gczXC56eVXuRpVie/lieN2KJGD26v8BJanJ3l5bryT6JN24KJiYRQggh/zZ2JQ1JpRLI/LyqIh6K5RmP5fSZc/D18ebM4axqRUVF+P3oCcGkIVvcpVKMGPYhO4czVZ6Gi39eLtczyO/eTcGiJSsBAF27RFXKgFNbrINKVQhfHw/BMkdHuvMZIYSQ6mdzwFk7OKAq4rALxSKsumIJepR5fev24+Sc7zZuQYcO7ap8wGkeS06OEgu+XWY1acgad3c31KlTG/cfPECBugAAcOHiZazfsAmdIjpY/Rm+tPU1bFCf/X9lKCrS4kFqOlxcnGAwGKHX65GbV4A0RRa8PKU04CSEEPJUqL7JfuSZt3TRPHy7cDnadYxmy7Z8vxavvPJitcZSo0YADv2yB5+NnVimdXTp3Anbt6zHS30HIj09AwDQM6YbDh3cW64EoS6dO+HP86cAAK6ukjJ/3h5enlI0bhiCawlJ0GiLkZevhl+xDs2bhpXrW1lCCCGkMjiU6HJL5CoF2m+KxrqXl6Fvg97VHRN5hqTcu4+UlPvs6+bNmsLPzxcAoC0uxuXLV9CwQf1SyxjXrifCw8MddUPqCG6rtM+axyIWu6BNm1a4desOb332bkOrLQYA+Pn5ornZt7Up9+5DpSqwWVaR+vV/G9euJ6Ju3Trw8/PF+jXLOPtvNJagQF2Iu8lyuLmKUSs4AFK3yhngEkIIIeVBA05CnnI/7T+Iu0nJAEwJTO++85ZglnxWdh5cXJx4dzAghBBCqhv9pE7IU+61/n3sWu5pSBojhBBChNCAkzx39Ho97j94CL1eDz9fX8Gf3wkhhBBSdSirgDx3MrOy8dIrA9CuYzQ2bNxS3eEQQggh/3o04CTPnRJjCQoK1Phy0hcY9PbA6g6HEEII+dejASd5bjULb2o1G72wUIN7DxTQGwxVHBUhhBDy70MDTvKvVKTRQq7IhtFgrO5QCCGEkOeezQGntlgHnV5fFbHYRLEIo1gIIYQQ8jSzOeC8m5yKNEV2VcRiE8UijGIhhBBCyNPM5oAzpHZNGI0lSL6XVhXxUCwUyxM5F3cBI0aOwbo1y9ApskO1xEAIIYQQLt59OJW5KuQoVZyyfJUaxTodHB0dEBzkDyeRqEqCo1golrLKzs7BpctXsK5NK7r/JiGEEPKU4A049QYDinU6TpnBYECJsQTFOj1QUmWxUSwUS5kFBwfixRdj8PuRY+jVsweCgwOrNgBCCCGE8PAGnP5+3vD382Zfa4t1SFNkQ6fTo0G9WlUaHMVCsZRVm9YtMWfmNLSPiIZMJqMBJyGEEPIUsCtpCADCQoMqPRhbKBZhFAshhBBCnmY2n6UeUrsmRCJHODpW/y07KRaK5Ukl30uDq6sYzk4iXlnNAJrzSQghhFQGmwNOqZukKuKwC8UijGKxn4e7GwrURchWF8FgMCDlgQISsQvcXMXVHRohhBDy3Ho6v4YipAKcPhOLa9cTOWUyPy9IpRLo9AaUlAA6nR6+3p7w9JBWU5SEEELI88/mN5yEPGucnEQICwvFLwcPIySkNpo3a8p539/PG85OTki5n4aGYbXh7EynASGEEFKZ6EpLnjv+/jIcOrgXJSUlcHFxFlzGy1OK5k3DIBLRl/yEEEJIZaMBJ3nuODg4QCp1s7mMSORQRRERQggh/2404CSEAACOHD2BI0dPwNPTA2M++wSenp7se/n5+Vi2Yi3y801PlWrapDE+/OBdAMCmzTuQeOMmb329enZHr57deeWJiTexacsOAMCHQ99F06aNOWUM822UFvPDh3LOckJl9ti0eQdq1QoSjLksmLoa+PqraNq0sV3bFao/ezD1Z8myDsz3razxCa2vupT1GNnbrhITb2LPvp957b609Vmre0KIMBpwElIJrl1PRE6OEi90jarU7aSmpuHCn5fQu1cPuLq6PtG64uIuYPHSVQgKrImPP3yfc+E1GIxIz8hErjIXAFCzZg32vRylEmlpCs66/jgTCw93d97A4Nr1RBw/fopd/sjREzAYjdDpdJx1XLueiFu37pQ6wPnjdCzi4i5A6s5N+IqLu4BLl6+UeXC0/+eDaNum1RMPOAsKCrF+w2a0btXSrgGJUP0Bj9qQUokXulhvQxqtlldmXi9FRUU4fOQ4riUkwsvbE6mpaThy9DhS7j2w+tlUeRqvfN++A0hOuQeJq/W7ULzQJUrwQQvXrifykvcAIDgo0O7zg9mP1Wu/Q2jdEGRl53Deb96sKW+uNgDcTUrBmnXf48VePeDmKhFsV0ybTLn3AHv3HSj1CWV3k1KweOkq0/527UwDTkLKgAachFSCffsO4NLlK5U+4Lz811WMGj0eF+NPPfGA00/mi+DgIJQYjZzyggI1MjIzNPCtyQAAIABJREFU8dmo4Zzyu0nJCKlTG+O/GM1bV7/+b/PKUlPl2LfvABTpGdi5fSMA4JNPv4CTsxOGDhmMr6ZPYpddtfo73Lt3n7eOggI1UuVyAMDM2d8gvGkTvP32ADYWJydTl1agVuOfW7c5n3WXShEc/PiBBNnZOcjKzn68brUaWdk5SE2Vs8ulpspRoFbzPluRhOoPAGbO+gaXLl9h68oWvV6Pe/cfYOOmbejYoS2GDhmMK1evYeGiFZg7ezpaNA/HocNHsXnrTuz5cRsCAvx561i8ZCXOxV+AzM+PU56VnQ2tRotZsxdY3e6+/+3gDdSYY777x73scjVqBMBdKkX79m1Qq1YQ57gJKShQ49r1BCxctAJqdSGuJ9zA9YQbnPVNnjhGcMAJAD7eXli9YhGCgmqydWoZnyI9A9/MnYGBbw2Bs7MzXurdE35+/PvyurtLEVYvFPfuP7AaL2D6A61Yp4NE7AIHB5q6QwhAA05CyCPDPh6KGgEBGPPFZE75mbPn8OagobzlA2vWwB8nDyHQ7NvO0owdPwXhTRpj6eJ5bNnSxfPg6OiI4yf+4GyjuFiHFwW+aTSPRaPRIPbceWzZtpMXy5mz59CuYzTnsy/17on/7t7Cvl7/3RbMX7CYfc2sLz0jg11u7PgpOHT4KO+zT6PMrGy89MoAfDN/Jvq8/CKOn/gDo8dMxO+/7kNISB18u2g5/rz0Fw4d3As3N+t/nAz/z1B8OWkcp2z+gsX468o1wTpIUyjwQreXBdfFHPM/z59il1u6aB5e6t0TR46dwEuvDLDZhs6cPcfuR40aAbztLl00D6/2E96+LeZtUiwW49DBvXhv6HDcf5CKKZO/4C3fpXMnHPp1j9X9ZeTlF+BOUipaNa9vNXGRkH8bGnAS8i9wLu4CpkybCQCYN2cGOkV24C2za/f/EBd/EXv/ux0y2eNvdzq0b4uDP/+Xt7zYxQV+vj52x6Ap0mDztl04+ccZtoyJxXIbW7btRHZWDm8der0BErEY69cug9+jb+HOxV3AqtXrUWIswZRpMyF2EePY7wc4nxNa3+BBAxHVqSOys7Mx/JMxmDJ5PDpFduB8s/XVtEn49JP/4J9btxHd4xVOzOZ1ak6rLUZWdg6mTJuJxUtX8t4fOuQdDH1/MPt6yrSZOBd3gbdcyr0HKCgoYLcrxPxY+vn6YNvm9di8dSfy8/LRt89LWLZ4PsaMm4wvJ43D4EEDIZP5YsgHw7F+7XLIBL7Bmzd3Bjzcpfj7WgJn35hY+rz6Jmf5TpEd8PVXX2Lf/3agQYMwtjwrOwfDP/kcL/bqgRd7doe7uxRSNykcHBwgkUjg7i7FC12isGTRPAwb8Rm+nDSO1yaZemnUsAF2bNmA2rWD4eLiAsB0zOcvWIwN65YjMqIDW14apm3MmzuDE1+aXIHerwxgl3tn0BtIkyswZdpMzJszg7OOCxcvcbZrTUlJCQwWvxQQ8m9nc8CZlp4NsdgFvt4eVREPxUKxPPOxfL95O34/ehzpGZmYOfsbjP18pGAiwvebtyMx0ZQs4unpwVkuIfEm9uzdX2rZ70eO4/vN25Gfr8LM2d/gs9EjEG5lTll2dg7+OB3L/l9Io0YN4ePjjYiI9pxyRXoGDvzyG6esadPG+OiD98pQK8BHH76Hu0kpSEy8if/t/RljPx+JmjUC8PuR4zhy9ARn2X/+uY30jEyMmzAVAPDhB++x++bi4oKIjh0QFFQTANhEJgDo2KEdAgICEGmxD6dOneENOENC6iAkpA7kcgVcXFzQLLwJbwpEs/AmAIDatYJRUKAGANR89C1bzRoB6NeX/01Xfr4KiTf+QccO7QTn+DVq1JDz+vr1G5BIJLy5o6ZEnVSr21i6fA3nWLq4uCAioj3SMzJw5co17D/wK95683XI0xT49bff0bVLJ8R0j0Z+Xj4WLFyGoUPe4bUXZn8NBiNnu9ZiCatXl90uIyHxJrZs24XIju0R0z0aISF1ePEDgJ+fL6Kju7DxqVQqvNirB/t+xw7tIJPJoNFo8L+9+/G/vfvZ9+4mpeDUqbMICgzEyVNneOs2by/M+RESUhvdoruiWXgTFKjVeLFXD8R0j0Z6RiYePExl2yRTlpGRwVtvzRoB6NvnJURHd4G7lB4WQUhZ2Bxw6vUGaLVqODo4wNvLvSpiolgolmc6ltzcPBSoC6HVFiMzKxsGA/ebjqKiIhz6/RgSEm4gIyPT9Jm8POzZewAv9uqO4OAgaLVa3H/wkC3LyVHi2Ik/OOtTqwuRm5sHg9GIzKxsaAWSQBjBwYEYPOgN9v9CLAdpDK1Wi/R07sU3KOjxOk6dPovUVG6iyUN5Gtq2acUpe7Wf6Zu6Xw4exqHDRzHs46EICqqJK1evcdZ/6nQsfH19ENmxPVte2r5ZbuPatQScOn0W0V0721w+NVWO34+cQO/eMYL1cur0Wfj5+KB583B8MeZTznv16tXllTHrGzigH8LDmyCm+wto3jzcZhyRHdvjrTdew/mLl/DSizFwdXWFKl+FS87O+GT4hzj0+zF0bN+WnUcqlyvw3Ubhn/hf7fcKDAYjklPuQeToCJnMDzdv3oJaXYh69eriow+HYPrXc0utU7HYhfPztVTqBhexmFMGAF7eXrzPJiWlYNeu/+Ji/Cn2jwJr3KVSDPt4KPr1fxsuzs6cAad5e3nrnQ/Q+8UYuD1KWnKXuuHVfi9DrVZDrVbz1mu+b8z50bhxQ7g/ul0as12m7Xp7e0Hk6Ah/mR/izl9Ei2ZNEdmP/81yvXp1Mawef3oJIcQ23oBTp9NDpzewr/18vSBPy8S9BwqIxbWrdBI0xUKxPIuxjBs7CgWqAly6fAWrli/kva9U5mH0ZxOwbs0y9O3TG4BpANE+Ihr+/jIEBwehTeuWmP31NLbs8uUruHT5Cg7s/4Fdz+uv9YWzszNGjByDVcsXlnpxb9O6JXZs+65c+9OwQX1MnzaRU2b+7c6SJasEE038ZNyfbJkEnFS5HHqDAXeTkuHp6YEXukahY4fHg6l+/d9G2zatMOOryY8TQwIeD3SYz6oKTN9sMklEjD/OxOL8hUuoXSvYZkLK5b/+xvQZc6wOjpYsWYW2bVrZNWi0XN+IkWOQn5dv92dv3b6LRYtXIrBmDTRv9vgzKlUBli1fg2EfD7WazGIuNVWOF7pG4fXX+kIuV/Damo+PN1YtX4jUVDmys3ME13fr9l3MnvMt+5pJGjIvA4Bu0V3sGtg/KR9vL7aNWyZ7MawldjGfnT33W+Tn5cPX14ddjmm7EokEqoICLF2+BunpGRj/xWi7jxshxD68njgtPRv3/8/efYdHUe1vAH+z2ZJeN70RqhB6bwFUhBBAUfCKDSmiXhUVxYZe28+Lei8CVyx0gr2AgHRBQSkGQXpRILR0sul92/z+iDvsZifZTUh2U97P8+R5smfPnnlnspCT2fnOScu2aDMaBQDAydMXHXoRNLMwS3PN0pJIFQ1VL6KRKjSpfqxNBThVZ54rMWbcRHz39RocPXYSx46fkCxIMRXC/G/hexiTcFtVW44GY8ZNFP940OsNCPD3E19TdeY0zK6ClKYkfuhgfJa0FKPH3oXFi65P7EwrZ9VWzGJu9py56Nmj+w31ix86GIcP7hEf11Q0JJe72rNrDap6sZeJrcKuhe/Pw3v/WYTZc+ZavXd79uiOp2e/iG1b1uLp2S/VOAYR1Z/VhDM4yB8+3pbXpmRfy0NZeSXaxYZD7sB1p5mFWZprFnuYF5WYCk3MqdUBWPftZ1i95guEh4Vi3r9flxqm0UkVDVU/K6ZUKOHlVfs1baYCnAO//Y4FCxdj6SeL0L9fH3Tp3AlqdQAm/uNBLP3kf2J/U2HIgvnz0L9fn+vbDvCXLBoSsyiVUMgVKC0tg/D3HxxSktZ8IVkkVV/Vx5v379exbt1GyeITKXK5K6KiIvB50jJ06NAOv//+B4DrK2e99cZceNdyjKsX6tSnn60CpupFQ+ZqKkZraDqtFt27xVkc05qKzMy5uVV9HF9RXmHR/sVXa/HDpm3IzcvHlKmP4fyFFAwwe78RUcOw+g3splLCTXW94s9UeBEY6Gv1y7yxMQuzNNcs9qheVHL3pAkWRRwVFRXYsfMnxMREQafV4eDvh8Wijro6feZPrFr9GQDLggp71FQ0VNcsB38/jMiIcHSN6ywW/mz4YQsiI8Ix8paqWxi5uakAADt2/gStTidZoFFb0ZBJXJeb8PprL8HHt+aCsStXUpGZmWVVJGV+rE6f/dPqWlR7x+sa1xnr1m3EqVNn7Xq9VKEYULVy0cL/fYxJEyfUWIADVB07UyFMTEy0WLwz++nHkXzwEJTKqmskq/czZyrUqY/Qatd3Vt83U5a6vPdqEhgQIBZ4rVz9Gf7667zVJR32MC9ku5qajtGjbsXdkybUWoFORPVjV9GQl6cb1AHWF4c7GrMwS3PNIuWO28eK19WZColUZhPmkpIyLFuehCUfL8KRI8ewceOWOleGm1y8eBkLFn0EABgxPL5Ov/QvXryMT5auEos2Tpw6g/PnU+qcZePGLejTuyd6m03gTG1d4zpDrQ6Eq0wGACgpLUN5eblFW13YU9zRrVscvLwti8lOnjyNXT//YlaspMWJU7aLkPb8ug8AMHy4ZZ9u3eJQWFSE7zdsEouBalK9UMzEYKgqevlx588wGgw1XltoKoQx34/y8nLMmD4Fq5I+R3LyIajcVBgxbKjYrzpToU56egb2/H1Xg9pERIRZHZeIiDAkJIzE9h27xCK4mgqJTO/79u3bSu7XyZOncSHlIu68czzca1jlqKCgEG1j26BXrx6Sz5eXV2D9hk3w+/uyC/OfkanIzMXFBQIEREdFipnro6CwBIpqlxmY2jw9b2xhBqLmzuaEMyqi5r9aHY1ZpDGLNGdmCVQHws/PF3/+dQ4AEBkRIX7kLJe7on37tigoLBSfz8srwPsLFuPtt/6FiIhwlJSU4vKVq2jTJhpeXp7ieBdSLqJNTLRYCOPl5Yk2baJx+cpVFBUXQR0YCLXa+kyPl5cnburUQfy+rsyLNqqv1lITjSYXFRWViIys+uUdGRmOwL+z6fUGXEi5CL+/q5x/3rMXK1auwdDBAwEAEyeMx7BhQ/Dqa/+H0JAQdO8WJ+Y2vbaouAgAkJaeUX3TdrnrzvFWbd+v32RRnHX7hMn4de8BeHp4IDIi3OLYV2XR4/KVq1i16jP0798XTz4+02ob/v5+kvtRXe9ePfDO26/j7skPITY2Rmw3Ffk8/uSzUCgUNotZ0tIy8P36Tci+dg0ff7gAQFUh24cfL8eqVZ+JZyLN35PVHTl6AlOn//Pv/ZW+TlOTm4dBA/pZTTjN90OhVKBf314oKCxE+/ZtLcYqKSnFiZOnxff9zSPirbZR/ech5bnZT4rfm34eoSEh4r4Vl5Rg0QefQC53xROPP2LxMzI/VuaZx4weKfnvyJYcTQEUCjmUSjkEQUB5RSWysnPh7e3JCSe1ek3rojaiFuKRhx9CeHgo+g28GQDw7VdJYtFLUJAaWzetxYNTH8XjT1YVbISEBIsrwgCWq6vExERjyOABCA8PReK4SRaFMPFDB+PT1VWFJtnZ1/Dyi8/VWARyKLmqCMR0LVtjW7ZijUUx0IL5VasK7fjxZ+RoNEgcPwmfJi3FyROnsX7DZmzdtNZiBRzzfVu86D/Xi4b+fm1NRUMN7ZGHH0KfPr2sjn1Vllwkjpskru4jpab9kGJ6b6hUKvxa7Qyj6fjZ8uzzVavnLJg/z6K9tvekZBZ1ILZu/g5hodJ3P3jnvfdx8qT1Gunm+2F6j9828harn2/193hDMP08zIvMzPejeiGb+bFSqVRi5lQ7irOktIsNx9W0a0i5lA6jUcDJ0xdxU8cYBAZY34eXqLXhhJOoESiVSgyPHyIW25hf72heBPL0rMcAVK3aExUVIZ4B6t+vj7i6SlWbK4bHD8Gnq5darO5jXmhSqdWiTUyUZB653LVeZzZNNLl5mPiPB6FSKXH5Siq6m61bbSqOqb4iTvV+b739nrhyzO5dm8Xj0qdXDxSXlKK8ogJTpj2KA8m/o0/vnlZFNEDVyjam15pTKZVWhT+m4pjc3DzcPDzerqKrqQ/dh7DwUHFf7rv37r9XyvGyOvbmRU21rXZjvh+r13yB7OxrFisNmTO9N6S4ubkhac0XSPr0S6siM/NVj0yZq/9hUf09+eVX3+G9/y7C4EH9JYuaTEU05pd5mKv+85XaD9N7PDAwQNwvqRWEpM6imq8MZK76z8hcZaUWV66mQW92ezQXFxd4enhavP+rF06ZjpUpc12KvczJZDKEhgRAJnNBWnoOOraPhK+vJ9dTJwInnESNJjAwwGrlGnO1Fd0EBgZYVYJLtQGwWumlocV1uQnvVPul365tG/H7rnGdUVxcAm8f6wId836mgpR2bdtYHBfTPplWfxkyeKBYtFF932wdU3Om4piSklIMGtjfriKnmJhojLxlhLiqkHlhTfVjX5dVZ8xXAQoOtrzUY8b0B63aAGDUqFvRs2c3i7ZOnTqKq/2YF5mZr3pka3Uf0/ErKChAp04dLH5GJlI/cylSrzUndczN3we1vW9Nq0ZVH6P6z6g68+NSU/FYbYVTpvez1EpD9nBTKRGs9oNCLoe/nw9cXet+DTJRS+Qi6AqEjOIs9Fs1AksSF2F8hwRnZyIiIiKiFoRnOImoWUpLy0BJaQkAQC6XWxX0EBFR08H/nYmoWZo952Vs274TABAWGopfd29DWFjzWFWIiKi14cUlRA6myc3DXXc/iAO/HbSr/8uvvInVa75w2HjNRWVFJf4x6U5s3bQWn61ZhsBAf9svIiIip+AZTiIH01ZqcfDgIeTm5tvV//Tps3BTqRw2XnMSEx2FYfGDa+1jWnEqwK/mVYeIiKhxccJJ1MQNHz4UsW1ibHdsJsxXsRkxbEi9V3WxV25eIbw8PTjhJCJyIpsTzkqtDjIXFygUzp+bMguzNJcsGk0uNLm54uOaVnUx9aut6OWeu+8S1xi/kSymbUhJS8uAm5sKbm5uSEtPt8psWsFFr9cDALw8vcQVhEzbqKioRGhosNivplWPjhw9gQemVK328sP6rxt9wklERM5n8xrOlIvpyMzOtdXNIZhFGrNIc2aWZSuS0HfACPFr774DtfYbM3YScnKks86e8zKWrUi64Sz2bGPvvgOSmXNycjFm7CTxudlzXrbaxuw5L1v0u5HMRETUsticcMZEh8JoFHDpSqYj8jALszT7LC+/8iZ0Wh22blorfq3fuNmqUMe836IF72DmY09JFv5UVlRCp9XdcBZb21i2PAnrN24WM/fv3xcAcOC3g5j52FNYtOAd8blRI2/BXXc/KK52o9PqsHv3rxb9dFodXn7lTattDR48AL/8vBW//LwVgwcPqNd+ERFR82L1+V1efhHyC4ot2oqKy6DV6eDi4oLIiCDIXa2XIWsMzMIszTHL6dNn0ad3T4tilvz8AoQEB1n0GzSwH0aPuhUDB/ZDRkYWjh49bnfhT32ylJaWIiMjC5cvX5Hse9NNHTF2zGirIpzc3HwcPXocvXr2QHh41brahYVFOHjwELSVWrFfaGgI7hifiBHDh8LT0xO7d/+K06fPWm0nMMDfZqEPERG1LFYTTqNRgE6nt2gzGI0QjELV9VuCw7IxC7M02yzV3XF7olXb7eMTG3VJyuo8PT0x8+GHsGnzNsnnBw3oJ5kTAMrLK/D9+h/g5+8HADh69LhVn7axbTDz4YcaLjAREbUYVhNOdaAv1IG+4uNKrQ6ZWbnQ6fRo3zbSoeGYhVmaa5aWprikBP9bvARy+fUzxO3bt7V4bK+SklLJwiQiImq5bJbvplxMh4eHG9rFOr+SlFmYpblmae6C1IHYtmUtwkJDxTYXFxe4u7vVeay9+w7g7slVZ0K/+3oNxiTc1mA5iYioabKraCg0JAAymfMXJWIWZmmuWZrC6j51XZHInIuLCzzcPeDpWfV1/MRJPPDQI8jNq/s1p3q9AaWlZSgtLYNeb6jz6+1RVFSK039esrjEQqqNiIgcw+YZTk+Pup/BaCzMIo1ZpDkry4zpU3Ds2Ak8O2eu2KZWq9G5U0enZnF1dcXgQf1x7tz5Oo0RF3cTZj/zBBb+7yMYDFUTRHd3N4wZPRLu9bg/aFzcTVgwf574fWNQKhXw8fZEavo1lJZVQKczQBAEBPj5NIk/QIiIWhvn352bqIW54/ZEGIwGrF+/SWx78IHJ6NWzOwDA3cMNd911u8WN06XaTEYMH4o2sTWvNFTba82z+Pn7Ycb0ByFzcbEar7ZttI1tgxnTH8Rrb8xDQX4BAKBXz+4WBULdusfB29vL4nVSbabxZj/9eI37UxcnTp7G519+Cw93N4xJuA3u7u4AADc3JcJCAnH5aiYEowCD0QiF3BVhodY3oiciosbnIugKhIziLPRbNQJLEhdhfIcEZ2ciIrLp8VnPYc+evQCA4OAgfPvVGgQHq636nU9Jg4eHGyLCrJ8jIiLH4BlOImqWFvx3nvgRf20FTO1iw+Hi4uLIaEREVA0nnETULNm7vjyv2SQicj5OOIlaicKiIixc9DGKioowetStGD3qVmdHIiKiVoJ/+hO1EqUlZVi+IglHj51AaVmZs+MQEVErwgknUSvz7DNP4q4J4yWfMxiMKC+vhCA4cR1QIiJqcTjhJCJRYVEJTp5J4c3RiYioQXHCSUQiQRBgMPLsJhERNSybE87M7Fzk5Rc5IotNzCKNWaQxCxERUdNgs0rdoDegqFIHmUwGP1/rVUMciVmYhVnqJy09Azt+/AljEm6TXJGIiIioMVlNOHU6vcX1WwH+PkjP0uBKahZUyii4uSkddhNlZmEWZmkYR4+ewGuv/xuHkvcgPDzUYdslIiICJCacmdm5uJKabdFWVbEq4OSZFPTs1gFKpcIh4ZiFWZiFiIio+bOacAYH+cPXx9OiLSs7D2XllWgXGwG5wnH3imcWZmGWhjFk8AAsX/oBZj72FOa+9ByGDB7g0O0TEVHrZvVbz02lhJtKKT7OzM6FSqWEOtAXPt4eDg3HLMzCLA0jIMAfPXt0x7FjJ5CXl+/w7RMRUetmV9GQl6c7AgN8HZGHWZiFWZygoLAECrmrZJunp7uTUhERUUthc8IZGRHsiBx2YRZpzCKNWeyXoymAQiGHUimHIAgoK69EVnYuvL09OeEkIqIbxhu/ExHaxUYAAFIupkOn0+PkmYtQB/ohPDTQycmIiKgl4ISTqJV56ZU3sDrpC4s2mcwFoSEBiIkOg0IuR+eOMfD19XTorZuIiKjlcmypLBE5ja+vN958fS5KSkvRuXNHq+fdVEoEq/2gULjC388brq78e5SIiBoGJ5xErYSnpycenjGl1j5ubkqEufFjdCIialiccBIR3aDU1DQUl5TC28sTUVGRFs8Vl5QgNTVdfBykDkRQkBp6vR4XL12BXq+vPhyioiLg7WW9BGpOjgY5mlzI5XK0jY2BXC4X28yZtmErs5ubm0U/qTZbTPsRFhYimbkuiktKkJmZLe6bPduVOn62mB8/qfHsOX5EVDeccBIR3aBn57yCrdt/RGLCKHz3zRqL5/bu/Q13T75+ZnnuS3PwysvPIScnF4njJiEzK8tqvO++/hSJY26zal+2Yg3mvTsfYaGh2LtnO8LCQsQ2c6Zt2Mrcs2d3i35SbbaY9uODRf+RzFwXe/f+hqeeeUHcN3u2K3X8bDE/flLj2XP8iKhuOOEkIodZnfQF/jp3Hu/Oe6NRt7P/wEHMX7AYy5f8D2p1418iUFlZibKyclRWVlo9N3BAX2zf8r34ODq66gxoYKA/vvhsBbRarficJjcXjzz6NAwGg9U4L819A+5ubti+5XsUFxfj4UdnYe5Lz+GB+/+BYfGDLfrpdboas2o0uZj52NNIHHMbRt12i9V+1PZaKYIgoLy8XDJzXRkMBpSXl/+9DGztpI6fyUtz30CnTu0x7aEHJF+rVCoRGOhv0Wbaj7Ky8jofAyKyjRNOInKYq1dTcebMn42+nby8fPz++2FotY6ZODw8Ywp0euttbd+xCzt+/MmqPa5LZzw8YwoG9O9j0Z6RkQWlUmHRVlhUhAULP4Kvrw9uHhGPgQP6obS0FBkZWQgLC8HZs39ZbCMrK1syoylLSWkpdu7aDaPRgDNn/hSziP1+3IWCwkKL144edSsSRo8UH69Y+SlOnzkLACgpLUVhUTFWrFoDhUKOhNEjxcxFRUVWr20oSqXS6viZBAb4IyYqCvFDB9k9nqmobtEHn9TaT28wIC09B0FqP3h6uNUpM1FrxgknEbVaaWkZ2P3LXgDAzcPjERkZXq9xvL29MbB/P3j7eFu0l5eXIzc3z6p/UXGx3WOXlpRhxco1uOeeiTh/4SLOX7gID3d33H/f3XB3d8fx4ycttiF1xg8ADh48jLXrNuLmEfG4a8I4AMDPe/YiJeUS7r/vbmzdthMdOrSDn5+vxXi79+yFn6+vxaSxqLgYubl5SEvPQPLBw0gccxs83N1RXl4OADAajcjPL0BBQQEOHjyMHE0uPNzdkTjmNri7u+PEiVM4fvK0Vcajx06grLwC69ZvhJ+fn9Xz5j+j8vJybN22E2V/b9NcWnoG5Ao5PvviG8ljYZ7FRCaTwd/fD6NH3YLu3eMkXwcARoMRmdm58PZy54STqA5sTjgrK7WQyWRQKJw/N2UWZmGW5pslNTUNORoNiktKcO58So2FIaYCHMC6uEOqqKR6W06OBqlpadDr9Th34QK8fbxqLGY5euwEpkx9FADww/qv6z3hXLtuI7p0uQlP/PNhi/ahQwahUyfLW1DVtSBFrpCjQ4f22LFjFz7/4htUlFegd++eiI8fDI0mF506dcRLLz4r9k9NS0eORoMzZ/+yOn69enbHp0lLxb5vvvUu/jhyDMUlpVj80TK88dpLGDF8qMX2b58w2SrTs8/+9W+uAAAgAElEQVQ8AQDYtHk7Hnv8GXyw8D8IDw8Vn/f388MHi94DAHz0yQq8+94CBAUFIT5+MNzd3bF3fzI+/mS51bjFJaUoKSnBhx8tk3xvREVGiD+j/PxCPPXMC3CVy+Ht5WnRLzU1HWnpGfjrr/OS2zDo9Rg0cI/FhLO2Y0BEN87mb5wLlzLg5eWOmMjaL+B2BGZhFmZpvllmz5mLjT9shSAIGDN2Ivb9sh1hYaGS/bZu+xFAVXGHeb+9ew9g1tMv1Nq2bEUS3nr7P9DpdBgzdhLWffspEseMatR9W/j+PLjIrO9bumxFEv79jmVBzysvz8ErL8+xe+wgdSC2b1kLQRDw73fex9FjJ7Du20+hUqlw9+SHxGNlotXqsG9/MlYlfW51/GxtQ6FQ1NqvPh6ZORXTp94PFxcXqFQqi7bqtm7biVnPvIBtW9YhLNT6/alUKq3aFs6fZ1WsNOmeh9CrhuKnrdt24qlnXrBqb8xjQER2TDhjo0NxTVOAi5cz0LZN/f76byjMwizM0nyzvPXGK/D18cFf585jwfx5CAwMsHheo8nFzEefQmLiKDzz1OMAqj66nfHILLzy8hwMGTwAAwf0w+IP/iu2/XXuPH5LPoSvvlgpjvfgA5Mhl8urioaWfoCBA/rVmGnI4AHYu2c7AKBL50713jepiZApy/BhlmfLTEVDpv3V5F6/pZFWq4Om2kfwLi4ucHOr+uhWIZfDVSYTH7/1xivisdLkVo33+r9mYcjggX/nUlgdZymmbbw49w106tge06dKF9uYW5X0OX5LPoT1676AWi39s5zz3FMYMngAFNXOVirkcqs203grli3Gk089L/7MbVEqlfjqm3X469wFvPd3MZqrTAaFXI4jR09g/vsfYPnSD8TisZp+VubHmYgantWEMy+/CPkFltcXFRWXQqvTQyaTITIiCHJXV4eEYxZmYZaWk6VL506IjopETo4G/ftZF3totTr8fugPTJ/2IIYOqZowZWRk4fjxk8jLywcABAT4o2f3bmJb6tU0ZGdlW4wXHRWJLp1vglKhQP++fRAQ4G+1LZOAAH9xW43hzJk/rYqGRo+6FdFRkeL+JiaOQlyXzuLz906ehLi4m8TH5gU4yQcP4do1DV5/8x08O/sJHDhwEJGR4UgYPbKq4EihQJfON2HokIE4ffosvl27AZ06dRAnWafP/InZz70sjp188BCC1Nc/3h8yqD+OHj2BFSs/tblIgNSxNzHtm+nnZg/TeOY/X3t16dwJ2dnXxONiEhYWgqFDB+Hd/yzEtIfuR1xc51pGIaLGZDXhNBoF6HSWN9I1GAUIRgF6vQGwfbeKBsMszMIsLSuLPXb/sleski4oKEBZeYXF8+4ebph41x04fyEFADBiRLzDM9pLqmiovFqRy+3jEjF+XEKNY5gX4JSVV0Cr1SI/vwBGoxFFxcU4ePAwVCoVOnXsIL7mxIlT2PXzL2I/E61Wa5Gn+rG9fXwijh49gR82ba11wrl7T1WhVUMde/PxzH++J06cQvfuXW2+fuCAflCpVFid9IXF/raNbYPp0x7A62+8Ay1vdUTkVFYTTnWgL9SBvuLjykotMrPzoNPp0b5thEPDMQuzMEvLymKPtes2YseOXeLj8LAQeHtfL/rx9vLCk088grfn/RftYtvg7ol31Htb5qsA1bS6z42oqWioLkz7GxYWggULPsQfR45hwfx/4+KlK5j58EP49LOvsXbdRvG60NS0NBw5cgzXcjT4aLHl9aM1FQ2ZUweprVZLqm7hoo/Qp3dPsXjIxLTq0bWcnDqtAFR9vA8WvYfbJ0xGcVGxXRPOnBwN1IEBYqGSSXFJCXJycrFg/r9trlxERI3L+ir3ai5cygAAtGsCv5iYRRqzSGMWaU0pi5SF8+fh8ME9Fl/m91PMydFgzNiJ4q19Zs+ZW+9t7d17AH0HDEffAcOxd++BG85e3bIVSeL4pq9lK5LqNIZpf83zmbc9MnMqFr4/T3xu9nNVx8O8rS6qj1cXpv0dM3aS1XKbjWnZiiTJ98HevQcwZuxE5ORoHJaFiKTZnHDGRociLCQAMhcXR+RhFmZhllaURYpSqYS7uzvc3d1RWlqG+x54GMkHD4vPCwJQUVEBV9eqM1baSun7TtrDYDCivLwC5eUVMBiMtl9QR3qdHr179cCP2zbgx20b0LtXD+h1dVv727S/5vnM2z77/Gv8643rE8S33qiaeJm31YVCLq+xsMbk3XfexLRploVFL859A3qdHj9u2yAWcb0093WsSvq8xnE0mlzcOfF+jB8/xmq8d995UxzXlgcfmIzRo27FnRPvh8ZsomteZLb/wEGb49QmKzsPFy9n2GwjImk2P2PwaEI3tmUWacwijVmkOTNLwuiRUKqUeObZlwAAM2c8JBZy+Pp646035uK35N/x0897AACurq6Ijx+M8L9v63P69FmsSvoczz07C13jOiM4SA2lSonX3piH52Y/CV9fHwBA17jOeO7ZWXh/4WIYDAYkjB4pudpN17jOWLTgXfH7xhDgf70wKcC/5gImc8tXrkFUZAQSRo8Uj0vXuM44cuQYTp05i/cXLsZzz87Cb8m/Q6VUYqhZNXeXzjchOEiNn/f8anVcTp05Kx57AEg+eBjBdbgn6PVtWFf0nz3zJ/r07omhQwaKBUxDBg9E6tU0LF+5BjNnPGTR3/SzjI8fjJG3jEB0tY/xu3TuhITRIyX3o7roqEiMvGUEZC4ucHe//v4OCPDH8PjByMzIFN9D9eXhoYJWp8Plq1kw6A3IzM6Fl6cHfH08bb+YiLjSEBE5zoABfaFUKbFw0UcAYFHI4enpiRnTp2DBoo9w7FjVdZV+fn6YNvV++P+96oxWp4NOpxfbYmNjoFQpq4pFhOtnAGNjYzBt6v14/Y13UFBQYFWoY97v6VmPNdbuAqha9ca04k1aegb69O4JwLL4qfqKOJ8sWYk7xiciYfRIyGQy+Pn5Yd+BZADA0MEDxWOwOukLxLaJRq+ePbBu/UaxCMh0nM2PS/fucRg6eKBF9XfHDu3Qs2d368xmKzB16NCu1pV3TEaMiEdxUTE+++IbVFZWInHMKPzzsRm4fPkKLl2+atHXVNRk/rOUYtqPjz9Zge/WbUDCqJE13pw/NjYGM2KtC51M76vde/Zi34FkHD12wua+SPHx9oRMJsPV1GwIqDo77uXpjsAAX5uvJSJOOInIwaoXrlRXvRCl+mt7Lepusw2wXO3GWdRBalRWVuLd9xZYtAHX8z0xaw5WrvpU8rXA9RVwcnJy8Pg/Z+L1166foTQdqz2/7MOSpassCqyqH5c7J4zHnRPG25X7QspFMfNHi9+3a+WdZ595wmJVoW+/TkJwkBq9JCa0e/cnIyXlklVRk5RePbvj32+/hn9Mnor27dqKE07TCkzmBWUmUVGR4vEzWbtuI/aIk+j2kNdjpS0vT3d0aBcJ3V+XERMVCj/fhi0yI2rJXARdgZBRnIV+q0ZgSeIijO9Q8+05iIjIfjq9Hvpqt+ORKxQWNz3XarUwGAxWrzX1EwQBlZWVEATB6rUmBoNBXENdqVTC9Qbvq1rf8Uz7a1pVyKWG64R1ej0Eo9HmtaImpmOgUCjELFJtJlqtFi5/3/zdvM10nG3ls8VoNMLFxaXerydqjXiGk4iokUitqFOdrUmXPSvguLq6WqwLfqPqO549+2vqVxdSx6C24yJ1TO2d3NpDJrGMKRHVjhNOIqIWZPnKNTh9+iwAwMfHx6LY5vTps1i+co3Yt6ZiKiKihsY/04ioSSgrL8fadRuRlpZuV//de37F8ROnHDZec7Fp0zbs+WUf8vMLUFhYBMGsmEqr0yE/vwD5+QVYt34TDprdboqIqDFxwklETUJBfiGenv0ijh47aVf/hYs+xoYNmx02XnNy5x3jsGb1Evxv4bvwM6sA79WzO9asXoI1q5egV49utY4hCALKyisb5f6kRNT6cMJJRERWdDo9Tp5JQWFRibOjEFELwAknETVLUqvdNGf7DxxE/IgExI9IuOFVcRqK0ShAEARnxyCiFsBm0VBmdi5USgUC/KVXeHAkZmEWZmneWbbv2IXtO3aJj81XGpLqV73oxdz+A8mIioywWqGmrllM25BiWvEnKjJCLLYxz1xYWIT3F36IoqIiAEBcXGeLFXW279iF1LR0/GPSnWK/mgp18vLysW9/svg9EVFLYnPCaTAYUVRcVrXahZNvcssszMIszTfL7j2/4uDBw8jPLxDbduz8GXqDAT26d7Xo5+vjg/z8ApSWlePbtesxZvRIREZGWIy3adM29Onds15V1uZZTNswXwXIfBtyuRxDhw4Sc5tWR0pLS8e2HbuQmZUNbWUlAODPP89h7bqNSEwcBQ93dxw8eBgbN20FALHfwYOHoVIpcfOIYRbbiowMx5QHJovfExG1JFYTTp1OD61OLz729/NGRpYGV1KzoFRGwd1N6bCb3TILszBLy8mycNHH6NO7J9asXiK2PfnUHLi5qSwmnOu+/wEvvvAMXn/tJWRkZKHfwBEIDQmxmnA2VJZrORrcc+80XEi5KNl334FkhIeHWuQGgKPHTuKNN9/BoeQ9CA+vWqd70+bteOzxZzB40AB4/H0fywspF/HlV2vxzVerERykxptvvYuFiz62mnCaCnqIiFoiqwlnRlYurqZlWbQJQlXF4skzKejVrQOUSoVDwjELszBLy8pS3YL570Ams5zsLnx/Hm4fn+iwDEHqQGzfshZ33f2g5POPzpyKf73yYr3Hjx86GN9/91mD3niciKi5sZpwhgb7W33MlnUtF2XllWgfG1Gv9Wfri1mYhVlaVpbqpCa6CoUS8jquRHMjTMscutaweozcVV7jhFyTm4c7J90vPi917aWrTAaVStVwgYmImiGr/9VVKiVUqut/iVcVGCihDvCFt5eHQ8MxC7MwS8vK0tK4u7lh3NjR8PG5XtTk5ekBX1/vOo9lvgpQTcVURETNlV1FQ16e7ggM8HVEHmZhFmZpRVl27/kVAQEBFtdwOlpZeTm2bv1RsmjIFk9PD8yYNkW8hjMtLR3JBw/DpR5rbV+8dAX/W1x1Deett4xw2oSzpLQcer0BHu4qqzZnF7wRUfNlc8IZGR7kiBx2YRZpzCKNWaQ5K0t0dNXti06f+VNsS1rzJQYM6OvwCad5lvz8fPxv8Sc1Fg3VxNvbC23btsHFS5eQX1BVwf7HkWNYnfQFhg0bIhYN1WW8uC43id87S1FRKYpKyhAaHABBEFBZqUNxSTl0ej0nnERUb867eIuIWpUF89/BO+++j74DhottX32+CuPGjnZqltDQEOzeuRlPPDWnTmMMix+Mz5KW4ebbxiErKxsAkDB6JLZvWVuvAqFh8YNx+OAeAHBqgVFYaCCUeQqcPJMCo1HAhUvpiI4MQfvYhrtLABG1Pi6CrkDIKM5Cv1UjsCRxEcZ3SHB2JiJqoVJT03A1NV183LlzRwT4+wMAtFotjp84hXbtYmttMzn751/w8vREVA03fq/tteZZlEoFenTvipSLl6zGs3cbWm3VvTkDAvzQ+aZOFtsoKS212daQbp8wGcdOnEJ0VATUgYFYsWwx1OpAAFU3y3/x5der9u3sOTz15KN4/bWXrMbQ6w0oKCrBuQupiIoIRrDaz+I6YCKiuuKEk4ioBdm0ZTsuXboCoKqA6Z5/3AVPT08AwKXLV7Bp83ax74D+fTCgf1/JcQwGI3I0+fDz9YabGyebRHRj+JE6EVELMn5szScNYtvE4KknH7VrHFdXGUJDAhsqFhG1cnUvpSQiIiIiqgNOOImIiIioUXHCSURNlkaTiwl33Yf9B5KdlmHV6s8xdPhoTLjrPmg0ufUaoynsBxGRM/EaTiJqsrRaHQ4dPoK8vAKnbH/ZiiRkZmThH3ffBS9PD7i7u9VrHEfvR15+ESordQgL5TWYRNQ0cMJJRC1SWVk5tmzdgbLycvTs3hU9enSr8xibN29Hn9497S60aSqKistQUlrGCScRNRk2J5wVlVq4ymRQKJw/N2UWZmGW5p3l2rUcXMvRiI9joiPh7W257viVq6koLi6Bt7cXFHKFxXPFxcXIyMhCu3axSM/IFPvFREdZbaugoBDPPPsSMjKz8Ma/XqrThFOv1yMl5RKKS0pwLScHp06fhUIuR7t2sZDL5Vb9dHo9ANSYxZa6HBcAklmIiJoym9dwplxKR0ZW/a5bamjMIo1ZpDGLNGdmWbZiDfoNHCF+7d33m1WfZ+fMRb+BI/DsnLlWz+3d9xvGjJ+EnBxNrf1uVE6OBmPGT8Kvew+ImU3blepn2p/6ZqnLcakpCxFRU2ZzwhkbHQZBEHDxcoYj8jALszBLC83y4suvw6DXY9eOH8Sv9Rs2Y9XqzwFcL6wZM/o27NrxA8aMvg0TJt4HTW6eOIbBYER6eibuqN5PoqBHrQ7Ahu+/xL5fdmD6tAfqlDUwMADffLkagwb2x5QHJ2PXjh/wzZerERgYIPbZfyAZMx55Eh99MF/cn5qyNORx2bXjB3z0wXzMeORJFiERUbNh9XlMXn4R8vKLLdqKSkqh0+khk7kgMiIYcldXh4RjFmZhlpaTZejQQQgOUlusbPPefxYiNTUNwPXCmhnTp2DI4AEIDw9FVlY2zp2/YDGOu7sbbh83BrfeOhyxbWKQl5ePQ4ePiMtLmiiVSvTr27teWU2vDfD3Q3RkJIYMHmDVJzw8DJPuugPD4geLK/nUlKU2Z8/+hT69e1psIy8/H8FBagDWxwUAMjKycPz4KacVUxER1ZXVhNNoFKA3GCzaBKMAwShAbzACgsOyMQuzMEsLyjJ+bAKOHz+JNZ99JbalpqWjT++ekv1j28Rg+rQH8cnSlRbtnh4emD7tQYSHhzZqXlti28Qg5J5JYmESABw7drLO49xyyzAUFhRZHJdbbh6GqMgIi34/7/4Vefn5AKquTzVtk4ioObCacKoDfaEO9BUfV1RqkZWdB71ej/axEdW7NypmYRZmaTlZrlxNxYaNW7D2+40WbXWl0+vx17nz8Pb2tCqsMWde0BMcpEZwcFC9ctekuLgYx46fwuKPliI/v+DvtpI6j/PMU4/j4yUrMf/9D8Q2FwAJo0daZF6/YRN2/bRbfBwZEQ5vb6/67wARkQPZLHFMuZQOTw93tHPwL0lmYRZmaVlZnn1uLrp3i8Phg3vEtol3P1jncTSaXCSMnYjv136OsWNG1dgvJ0eDhHETkZmZjVfnzsGrc5+vV+6a/LrvNzwxaw72/LQZYaEhAIAt237ErKfqvp1HZ07FDLPrTO+5bzqupqZZZF7w/jyr/VUoLKv4iYiaKruKhsJCAuDi4uKIPMzCLMzSQrPodFXXNapUKvFLJqv5v6D9B5KtioaAqoKeb79KwoYNmzF0+Gj8sGkrNnz/JdTqAIt+ggBoK7WorKyEQW95SUFDMBqM0Gm1UCqU4v5Uv42TPV58+XWs+fQri+NiNBisMivkCvH54uIS3HPvNPyW/Lv4vE6nx6mzl1BYVFprGxGRM9g8w+nhUb+VNRoDs0hjFmnMIs1ZWWbOnIojfxzD07NfFNsGDxqAyspKLFuRhPvvvRv/9+YrOPDbQez6aTc8PDxw+7gxVkVDSoUC/fr2hsxVhm7d4hAbGyNZHOTr643/e/MVlJSWYUD/Pg2+P127dsacZ2dh/oLFMBiq7sPp4eEhtk2f9gC6xnW2Oc7QoYMkj8vNN8db7IfpuACAq6scw4cNQXh4mPgamUwGdYAP8vKLkF9YDJ1Oj6tp2fDz9YJKyTOhRORcXEudiBxi/NgE9OjRFYWFReJXwuhb0aNHV5SVlcHT0xPTpz2IkJAgFBYWISQkCE8+8QimTrkPUZHhkuM99eSjGD82QXJ7pvGeevJRi8r4urjllmHo0aOr5HOxbWIwbeoDMBoN4v6EhASJbXrd9Up1Dw933D1pQo37IXVcTJmrH5fCwiIYjQZMm/oAYtvEiOO4usoQGhIIhUIuFoUJAEKDA+DmpqzX/hMRNRQXQVcgZBRnod+qEViSuAjjO0j/501E5Gx7ftmHt95+D19/uVq8bRBZy8jUoKy8Au3bRjo7ChERAK6lTkTNyLD4wdi+ZR2LZWzgGupE1NRwwklEzYZMJoNSyY+HbWkKxWlEROY44SRq4bZt34lt23fCx8cHzz/3FHx9fZwdiYiIWhkWDRG1cJWVlTh95k+sTvocpaVlzo5DREStECecRC3chDvG4ZmnHm+w8XQ6PSoqtQ02HhERtXyccBJRnWRk5SLlUrqzYxARUTPCCScR1YkgCBAEwdkxiIioGbE54czMykVefpEjstjELNKYRRqzEBERNQ02J5wGoxFFxWXILyh2RB5mYRZmaQRRUREYNzYBm7dsR2oaPw4nIiLHsrotkk6nh1anFx/7+3kjI1ODq2nZUKkUcHdTOeweb8zCLMzSMHr26IbX//US+g0cgbCwUERFRjhs20RERFYTzoysXFxNzbJoE1B13dbJ0xfRq3sHKJWOWeWDWZiFWYiIiJo/qwlnaLA//P28LNoys/NQXl6BdrERUCgcd694ZmEWZmkY+/cn4+135mPl8g8xoH9fh26biIjI6reeSqWESnV96bjMrFyolAqoA3zh7eXh0HDMwizM0jDy8gtw4sQpdO/WFf7+fpJ9uCIRERE1FruKhrw83REY4PxfPszCLMzSeH7//Q8s/miZ5IpERqMROZoCVFbqam0jIiKSYvNzvcjwIEfksAuzSGMWacxSN8EhQYiJiYJOaz2BNBiMyMjSwGg0QqfTw2AworikDOmZGigUcqhUvB6ViIhqxhu/ExEA4JGHp2Lh/Hckn1Mo5Oge1w45uYXIzNagoLAEZ89dxU0do+Hn6yX5GiIiIhPHVi4QkcOtXP0Z5i9YbLNf0qdfIjn5EDau/wpqdYDV8y4uLmjbJgwKhVwsflKx0p6IiOzACSdRC9ctrgsef+xheHp61FoI1C2uC0KCg9C3T68a+3i4uyE8JBBand4pxU9ERNQ8ccJJ1ML1798H/fv3saufPby9OdEkIqK64YSTqJXQ6fRISbkInV6P4OAghAQ3/UImIiJqGVg0RNRKaDQaJIybiL4DRmDZ8iRnxyEiolaEZziJWglBAHRaHf791qu4556Jzo5DREStCM9wErUynTp1RFRkhORzpWUVuHQlE3qDwcGpiIioJeOEk4hEFRWVyLqWB6PB6OwoRETUgticcFZUaqHV6R2RxSZmkcYs0piFiIioabA54Uy5lI7MrFxHZLGJWaQxizRmISIiahpsTjhjY8IgCAIuXs5wRB5mYRZmaQT79idj+swnsGrFRxg6ZKBTMhARUetlVaWel1+EvPwii7ai4jLodHq4uLggKjIYcldXh4RjFmZhloaRn1+AkydPo1vXOPj7+zlsu0RERIDEGU6jIMBgMFp8CYIAAQKMRiMgOC4cszALszSMqKgIjB83Bpu2bENqarpjN05ERK2e1RlOdYAv1AG+4uOKSi2ysvOg1+vRLlb6ViqNhVmYhVkaRs8e3fDaqy+i38ARCA8LQ1SU4zMQEVHrZVfREACn/JKsjlmkMYs0ZiEiImoabK40FBsTBleZK1xcXByRh1mYhVmc4OLlDLi7q6BUyK3awkICnZiMiIhaApsTTg93N0fksAuzSGMWacxiP19fLxQXlyE3txAGvQGXrmTC3V0FLw93Z0cjIqIWgCsNEbUyP/28B8eOnbBoC/T3gZeXO4yCAAGAwWhEgL8PvL09nBOSiIhaFE44iVoJhUKOzp07Yfeevfjt4CGr59UBvoiODIGvtyc6tI2ElyfPbhIRUcOw+ZE6EbUManUgtm9ZB0EQIKvhHqB+vl7w9fFssteaEhFR88QJJ1Er4eLiArnc9j95TjaJiKih8SN1IqJabN22E7Oefh6vvvZ/KCwsqrXvqVNn7OpX02tnPf08Zj39PE6dOlPfuERETRInnETkMMeOncCun/Y0+nZSU9Pxzbffo6ys/IbHOnToD3z48XKsTvoCpaVltfa9dPmqXf1qeu2HHy/Hhx8vx6XLV+sbl4ioSeKEk4gcZuMPW/HB4iWNvp1jx0/i2TlzUVBQeMNjBYcEoU2b6AZIVTsfH290vqkTFIobv9JJq9OjolLbAKmIiBoGJ5xERLV4ZOY0LJw/r9G3Ex8/GNu3rIVarb7hsTKzNOLqVkRETQEnnETUau3bn4xBQ0di0NCR2Lc/WbLP6qTPsXnLDmza+A3U6tpXXRo6ZCBWr/wY0x5+vMbxanLgwEHMfOxpJK38GEOHDKzTa6sTBEAQhBsag4ioIdmccGZk5SIvv+4XwDcGZpHGLNKYRZqzsixdthpbt+/EydO1F9YsXbZaLJ6p3k+qKKd629ZtO7F0+WoUFhXh1df+r9YCnPz8AiQfPIzkg4eRn18g2ad7tzjcOWEcevfqAaVSUes++vv7oWtcF5w6dUYcz95ioMiIMEy+ZyKGDB4If3+/WrdDRNTc2LxYSDAaUVRcBhcXF/j7eTsiE7MwC7O0wCwVlZXQ6rQwGAwoKyu3OgNXVlaOTZu34fyFFLHoRqfT4+tv1yExYRSioiKgNxig0eSJbbm5ufhp9y8W4+l0WlRWVEIQBJSVlUNvMNSYKSoqAtMeul/8Xkr/fn3qtb8//bwHmtxc5OXliftTW5Y2bWIwrU1MvbZFRNTUWU04tTo9dFqd+NjP1wsZWbm4kpoNlVIBd3eVw+7TxyzMwiwtJ8vTsx5DQX4B/jhyDAskroksKCjEs3PmYsnHizB+XAIAICMjC/0GjkB4WBiioiLQs0c3vPbqi2LbkSPH8MeRY/hhw9fiOHfcPhYymSvOnP0TC+bPQ3h4aI2ZevbohlUrPmqwfSwqKsbZP/+CTq/Hxk1bsXvPXgwfNqRBt0FE1BxZTTgzszS4kppt0WY6c3DizEX07t7B5sdKDYVZmIVZWlaWlm7vvgOYMPF+GCRSGMwAACAASURBVPR6LPvkc4xNHA2ZjJfKExFZTThDQwKtPmbLys5DWXkF2sdGNMgtO+zFLMzCLC0riz2ef/FfmPfufACAVquDJjfX4nm1OhCbNn6Djz9ZgajICPz3P//njJhWVqz6FMnJh7B3zzYAQKeOHaBQcCJPRARITDhVSgVUZmc7MrI0UCoVUAf6wsvLw6HhmIVZmKVlZbHHzSPi0bVrF4u2bmaPy8vLse77jejQoR0qyiuwe89edOrYoV7bOnnqDJYuWwUAePSR6RbbqYsly1YhO+sa7rxzPAYO6FevMeyxdduP2LrtR/j6+uCFOc/A19en0bZFRNSQbH7WIxgFeHm5I8Df+f+xMQuzMEvLyiIlccwoPPHPh/HEPx/GtIfuR2CgP1xdr/9XVVpahqQ1X6JL55sAAFu3/ljvbV2+fBUffbICH32yApdvYHUfU4axY0bVewx7HDp0BB99sgJJa760Ws3IaDTimiYflWY3fJdqIyJyBpufpUWEBzkih12YRRqzSGMWac7MEhwShIAAf5w4eRoA0CYmGj4+VR/3KxRydO7cCXn5+eLz+QUF+GTJKoSFhiIqKhJFRcU4n5KC9u3bwcfHWxzv7Nm/0L59O/HyAB8fb7Rv3w7nU1Kgyc1FSHAQQkKCrfL4+Hije7c48fumzrTqkVZiAmkwGJGVlQejUYBOp4deb0RxcRkyMnOhVCigUimdkJiIqErTuniLiFq0R2ZOQ3hYGPoOGAEAWL+2qrAGqLo2c/uWdZj0jymY+ehTAICw0BDs/WU7IiOrblm0d98BPP7kc2Lb0KGDEB4WhoRxk5C8byfCwqoq0uPjB+OzNUsRPzwBmVnZ+Ncrz+Nfr7xglSc+fjAOH6xa291V3vT/O3xk5jSEhYbgiVlzrJ5TKOToFtcWp/+8jNy8qiU9z56/il7d2nOySURO5yLoCoSM4iz0WzUCSxIXYXyHBGdnIqIWLD+/AH+dOw+gqrCm+k3O/zp3XrxpulKpRNe4LmIVfX5+AS5dvmKzDagqODp1+gy0Wi0iIyIQGRneaPv017nz+Prrddj+465a+/33vbdvaBUhU2HS4/982Gp/TcrKK5GWfk0sCvP0dHfYLbiIiGrS9P+kJ6IWxd/fr9bCmtoKgPz9/awmqFJtAKBUKtC7V4/6B62DTh07IHHMKKiDal8HPTLixia9Pbp1RVhYaK375eGuQlhoIHQ6fZMsCiOi1okTTiKiBtCvX2/069e70bdhD29ONImoieGEk4iomcjOvoas7Gvi49g2MWKxk06nw/kLKdDp9ACqiqBiuVQmETURXAKDiKiZWLo8CX0HjBC/ft13QHwuR5OLhLGTxOdmPzfXiUmJiCxxwklETYJGk4vxEyZj3/5ku/o//+K/sGLVpw4brykQjEYMHNAXe/dsw9492zBk0ADxOXVgIDas+wJ792zD1Cn3wWgwODEpEZElfqRORE2CVqvDkSPHxAp1W/766zy8PD0dNl5T4e8nXXRlXiS1Y8dPyDb76F1KRpYGbiplk10AgIhaFk44iahZGjlyBGKio50do8GkpqZh509V9wS97dYRiIqKbNTt5eUXwcvTgxNOInIImxPOigotZK4yKBXOn5syC7MwS/POUlvRi1Q/hUKODu3bQaGwvt/k+HFj4OHufsNZTNuQcunyFXi4u8Pd3R2XLl+xymyrUCc7+xrKyssRGREu9gsNCZZc9ejY8VOYMfNJAMAP679u9AknEZEj2byGM+VSOjKzNI7IYhOzSGMWacwizZlZait6keqXMHYScjS5kn1mPzcXS5cn3XAWe7bx674D9SrUWbo8CbOfm2vR70YyExE1VzYnnLFtwiEIQMrlDEfkYRZmYZYWmmXOC69CMBqx75ft4tf6DZuxYqVloc6cF6/3W7HsA0yb/k/s2/+b1XhGgwGC0XjDWUzb2CtRXGQ0GLBsRRLWb9gsZh4yuKpQZ9/+3zBt+j+xYtkH4nPjxyVg3B33QPP3BFYwGvHLr/st+glGI+a88KrVtoYOHYjk/buQvH8Xhg6t/2pERERNkdVnann5RcjNL7JoKy4ug06nh8zFBVERwZDLXR0SjlmYhVlaTpZz5y6gT++eGNC/r9imyc1DsNpydZ5bRgxD4phR6NevNzIysnDq9Fnk5xc2WpbS0jJk3JuFzKxsyb49unfFXXeOt8gNAPn5hTh1+iy6dumC8PCqNdyvXdPg6NHj0Gp1Yr+oyHDce+/dGDJoIDw9PbB9+y6cO3fBajv+fn5W2yAiaimsJpxGQYCx2lkDQRAgwLq9sTELszBLy8pS3dgxo6zaTJNNR/H09MDUKffh++9/kHy+f9/ekjkBoKy8HF9/uw5+fr4AgOPHT1n1aRMTjalT7mu4wEREzZDVhFMd4At1gK/4uKJCi6xredDrDWgXG+HQcMzCLMzSsrK0NKWlpVi56jMozAqwunS5yeKxvYqKiiULk4iIWgKb/yumXEqHp6c72sWGOyIPszALs7SiLM2dWq3Gti1rER4WatbqUq9LFH7ddwB3TrwfALB+3RcYlzi6gVISETmfXUVDYaGBcHFxcUQeZmEWZmlFWea88KpV0ZCjaTS5GHfHPZJFQ7a4AJC7yiGXV30lHzyECRPvE4uG6kIwCtDr9dDr9RCMQp1fb4/ColKcOnNRvI1TTW1ERA3N5hlOD3eVI3LYhVmkMYs0ZpHmrCyPPTodhw4dwROznhPboqOj0KNHV6dmkcsVGHXbzbh6NbVOY3Tr1gUvvvAM3vvvIuj1VUVC3t7euHvSBLjX4/6g3bp1wUeL3xe/bwwqlQL+ft64kpqN0tIKaLV6GI1GqNV+kMm40jERNR7n34WaiFqFxDGjoNfr8cOmbWJbwuiR6NG9asLp4eGOyZMnITr6+g3PpdpMbht5M2JiomrcXm2vNc/i5u6OKQ/cCxe4WI1X2zbaxERjygP34v/m/RelpaUAgJs6heGhB+8V+/Tq1R0BAf4Wr5NqM433+GMzatwfk6upaVi5+jMxX/TfN4gvKyvDxk3bUFZWhiPHTki+1k2lREhwAK6kZkOAAEEQoFIpEBocYHO7REQ3wkXQFQgZxVnot2oEliQuwvgOCc7OREREEpYsXYUly1aJj/+38D0MHzYEAJCTo8F9Dz6MnJyqm/oPGzYEHyx8r8axLlxMh4eHCuGh6hr7EBE1FE44iYiaCaPRaHErK1dXV4trcfV6A4Cq6z9dXFzg6lpz8ZIgCE3iOl4iah34kToRUTMhk8lqvdayLtXxnGwSkSPxKnEiIiIialSccBJRk1VWVoavvlmHq6lpTtn+zl27cfTocadsm4ioJeGEk4iarIKCIsx5/hXJJSMdYfGHSy2q6psCvcGA0rIKCELj3KuTiKgxcMJJRNSMFBaW4uSZFN6onYiaFU44iahFMq0gNHDISKevZtSwBPDkJhE1Nzar1DOyNFCplAj093FEHmZhFmZpwVm2bP0RW7ftEB8/9ugMdOtquarOJ0tX4dSp0+jaNQ53jE+0eO7kqTP46uu1ePH5Z/Dl12vFfv98dLrVtrRaHY4ePY6MzCyMGT2yTjkLC4vw3n8X4eSpM8jKvobgkGDJbZj63Tt5Eq5eTcPWbTvg6+uLF59/Br6+Ptiy9UdcTU2zeG1NbbaOCxFRc2ZzwikIAoqLyyBzcYG/n7cjMjELszBLC8yyc9duHD58BJWVWrFtx48/Qa/ToVevHuJKORcvXkJlpRYXL17CV9+sRVl5udj/8uWr+GTpSgQGBiArK9us3zrcMX4MPDw8xL6mlYYKCwrRq1f3OmUVBAGVWi2MRiP0Bj30Op1kv9LSMqz59EuUlJYi0N8flZVaVGq14vWVhw8fwR9HjllMLqu32TouREQtgdWEU6vVQWt2bZCvjxcyszS4kpoNpVIBD3eVw+7fxizMwiwtJ8vmLTvQuXNHvP7aS2Lb7RMmo7SkFL169RALhJZ8vAjjxyXg17378fiTz6G0tMxinNLSMqxO+hwff/g+hsUPwabN2/HY489gePwQiwmnn58v3v/P2/XKanrt+XMX0Kd3T8x68lEb+7YdL8x52mLf7LX4w6Xo07snVixbLLaZHxciopbAasKZmZ2LK6lZFm2m64VOnklB7+4doVQqHBKOWZiFWVpOloXvz6vTxDZ+6GBs27IOAwffatEepA7Eti3rEBkR3tAR623h/Hdw+/gxzo5BRNRkWU04Q0MCEeBneW1XZnYuysor0L5tJBQKxy1OxCzMwiwtJ4tMJsPylWssCnjOna86gyjFxcUFrjLplXNcZa5NaqUcmUx2Q3mWr1yDrdt3io9rOy5ERM2R1W8alVIBldnZjowsDZRKBdSBvvDydHdoOGZhFmZpOVk+WboK17Kv4aEp94ltS5aurPM4hUVFmPvqm3ju2Vm1FtaYCnoKCwuROGY0xiaOqlduR+jZsxsSx4y2aOvXt5eT0hARNTy7ioa8vdwR0ASqa5mFWZil+WbZtu1H9OndE48/NkNs2252Vq+6q6lp+G7tBouiIaAqv1arxY4ff8Lvh/5Afn4BJk+eBA8Py8mzqaAnIzMLwUFBTWLCuXPXbhw5dsKqvV+f3hbHZeeu3ZC7Wp7dzS8otjobbWpz9B8xRER1ZXPCGREW5IgcdmEWacwijVmkOStLbGwbAMCx4yfFtsDAAADApUuX4eXlhbi4zsjNy8Ox4ydx7PhJrE763KpoyM/XF/P/82+8999F+OLLbzEsfgj+t/Bdq+0pFHLExXVGcHAQQkKDbzizQiFHxw7toVDYf71rSGgwAgMDxH3+8qvv8Puhw+jXp7fkNky+/Oo7DBjQ16JoKDevCHK5KxRyVwiCgNKyClzLyYe3twcnnETU5DnuQjIiatUWvj8P//f2f9B3wAix7fvvPsfRo8cxe85cbFj3JbZtXou77n4ADz8yC2MTR0kWDZmPJwhCjddOBgWpsW3zWgBV11jeaObwsFAkH/gJ4WGhdr/+0ZnTEB4WJu7z9999jujoKIv12Ws6LuPHJViM1S42AldSs3DhUjqAqoKvuJtiERjgW699IyJyJBdBVyBkFGeh36oRWJK4COM7JNh+FRFRPaSnZyI9I0N83LFDe5SWlqG0rAwdO7QDAJw7n4KCggL4+fkhtk00Tp8+izZtYuDn5yveAulQ8h6Eh9s/8WuIzEqFAnFxnS3OcOp0Oot8UgoKCnHu/AUA0vtrvg2Tjh3aS45XqdUhJycfV9Ov4aYO0fDx9oRcLl1YRUTUlHDCSUTNxuUrV/Hr3gOYeOft8PT0sP2CFqiiUovCwhKo1X5wreeZWyIiR+NH6kTUbLSJiUabmGhnx3AqN5USbsEBzo5BRFQnnHAStXBZWdnIyr5Wr6IXIiKihsDPY4hauGUrktB3wAiMGTsJOZpcZ8chIqJWiGc4iVq4GdOmwMvTE+8v/BAQnJ2GiIhaI57hJGrhIiLC0KFD+wYbLze/CBlZmgYbj4iIWj5OOImoToqLy5CXX+TsGERE1IzYnHBWVFRCq9U5IotNzCKNWaQxCxERUdNgc8J54VIGMrObRqEBs0hjFmnMQkRE1DTYnHC2axMOQQBS/l5OzZmYhVmYpX7ihw5C0qpPMHXGP7F3329OyUBERK2XVZV6bn4R8vIsr88qLimDTqeHTCZDVESww5ZSYxZmYZaG4efni7gunXH69FkUFBQ6bLtERESA1G2RBAGCIFRrEiAAMAoOvqcKszALszSIq6lp2LJlB+64YyyioyMdvn0iImrdrCacgQG+CAzwFR9XVFQi61o+9AYD2rUJd2g4ZmEWZmkYx4+fwtvz/otDyXsQHh4q2SczKxtZWdlQKBTo1JErEhERUcOxq2gIANrHRjR6GFuYRRqzSGOWulm23LQi0USuSERERA3K5kpD7dqEQ+baNG7XySzSmEUas9SRIMBoNMJoNFqtSKTT6fHn+auIjgyWbPP18XJwWCIiak5sTjjd3VWOyGEXZpHGLNKYpW7GJo5G9rUcbPxhi9VzMlcZgtV+yM0rQkFhCXQ6Pa6kZiPA3xsqldIJaYmIqDlp4qdciOhGHTl6HDt3/Wyzn8xVhraxMbj33rvh8f/t3Xt8U/X9P/DXSZq0TWnSK71AW6CAqFxbUEBQxAsIheEEJ+IFJyBj3+93E91ENnXqFJiK+t1P5DapqHgXBkWo082vMECBCpSr49aWJilNSpO2KW3Snt8fJYemOW3S0lwaXs/Hg8fo6SfnvM4pjjfnnPfno4l0+Z5SoUBS9ziEh6ul5idBISApMQ4RLDiJiMgDj3c4iahr27u3ADv/vQcDB14Hlar1/+T37i3AuVI93li+tNUxPVISIAgCbLUXA9L8REREXZMg2itFfZURI94Zh5WT3sCUfhMDnYmIOpHYbIomhaL1hxrOMYIg+CUXERFdPXiHkyjECYLgVRHJQpOIiHyFBScRSQ4VHsHbK9cCAH41fw4GD7o+wImIiCgUsGmIiCRFRSVY//7HsFir3FZKIiIi6ije4SQiFzE6LV5d9udWVySqr7ejsbERERHBP9UTEREFB97hJKJ2MZSZpZWTiIiIvMGCk4japelJOx+3ExGR9zwWnHqDCeYKqz+yeMQs8phFHrMQEREFB48FpwigqtqGC5VVfojDLMzCLIFSUHAQx0/8hPtlVhoiIiK6Em5NQ/X1dtTXO6SvddFR0JeZUFRSBrU6DJrICL/N18cszMIs/rMlbxv2FxzA5k0fBToKERGFGLeC01Bmxtlio+zgwiOnkTWkP9Rqlc+DMQuzMAsREVFocCs4k5PiERerddlmMJphq72Ivn16trkWc2djFmZhFv+ZM+dhpH3VE5OmzMC761YiMSE+0JGIiChEuP2tF65WIbzZnRe9wQS1WoWEeB26Rfn3vS5mYRZm6RzerCDUIzUFiQkJOHiwEPZ6u78jEhFRCPOqaSi6W6Tb3ZpAYBZmYZaOKSoqwcrV67By9ToUFZW0+/MNjY04X34BF+vq29xGREQkx+NzvR4pCf7I4RVmkccs8pjlMp1Oi0EDr8PxE//p0OcbGxphPF+BRlFEvd0Oh6MRVVU2GMrMCA9XISJc3cmJiYgolHDid6KrwM1jR2Pb1s87/F6mShWGwddnwmSuhMFohsVajWM/FWFA/wzotN06OS0REYUaFpxEV4EdO3fh4UfmY33uKowdO6rNseUmMyZNmY4dO3e5fS+zdw+kJMVDp43CoOv6QB2EzU9ERBR8+LcF0VUgPS0NDz84EyNHjkCURtPquMGDrsf/vrFM+kxLkRHhSEmOh93uCEjzExERdU0sOImuAhkZaXgw4z6vxs2f98s2x0R3a71gJSIiksOCk4joCp06fQYWixU6nRaZfXq3OU4TqUFKShLsdjuOn/gP0tN6QqfTwmKxorjkHAZc0w8qlXeLAjTfX6C0PA9vGAxlMBhdF0ZISU52Ow+DoQy2WpvX17Sz8l0J57mpVKp2/SyJQh3f4SQiukKPP7EYw28ch8efWOxx3Oq16wAA5eVm3DX5Huld2R07d+GuyfegvNzcruM69xcoLc/DG6vXrsPwG8e5/JI7j9Vr17XrmnZWvivhPLf2/iyJQh3vcBKR36xem4vjx3/C8ldf9ulxduzchZeXLsf63FX+WTFJFCGKIiCKst8uN5nx0OzHcO/0aZhw5+3YsXMXnn9xGd5dtxLZ2UOxem0u9ny/D1u3fIrExHjZz5pM7sXLyZOnsX//j8jbmi973ISE+FavwcInF2PHzt1u2+fOeRjz5sz25qyxY+cu/Pdvfo/z5SY8/uRiPP/iMpfvL3/1JYwdM9r9gyIw5qaR0p+DhU8ubpqstkU+nVaLu382GXflTG/1PJa/8hI+2PAJFj652O3PVcvr3Ja2rjPQjusiAqLzzwMRSVhwEpHfGPRGnDx52ufHqay04tChw35bMWnBr+a0rJckhwqPYM3aXEyeNAHjx9+Cgh8PYMfO3Zj90P0YNXIE1r27AaZyE+6dPg1DBg90+7y93o5Dhw7j7mk5GNRihagVb69FenoaciZPcPtcYeERbNyU53YNKi0WLFm6HMnJSZjz6EMoLDyC9zd8isWLFkKn08KgN+Ktt9fi17+a0+Y5523djh07d+NX8x91O65zf+np7o1nTjE6HYZnD5N+L5fvtltvQUJiPGpstXjhxaWYO2e22ypZffv2Qc7kiSg3maRtb729FoWFR1BUXIzde/Yid/0GfPrZJgDAoEHXy55blCYSs2bOQI3NJm2zWKx4eelyPHD/DGQPa7tgdXJm2bgpr81x5gor6urqkRpE8wUT+RILTiK6ahUXlyD/H/8EAEy4Y3ybBVJbFAoFhmcNRXxCnPs3RRGNjSIUCgECLt/9UigUl77dKO1DjkYTiftnzsCDs34Bh6MB+388cPmbggBBENw+mz1sKEbdOAKRkZHQaC7PJlBcXIK8L/NRXV2DWTNnYPDggdiStx0bN+Xhgft/gdTUZGzJ24YdO3djw4efYtrPJkPTbFYDm82GTX/fihqbDfpSA9LSeuCxuY9I3y8oOAirtQpzH30I8+bMRkyMDm1x7m/AgP7Iyhriki8hIR4FBw5eujYCGhtF5H/1DRx2B7Kyhrieb4u7l/n5X6NUb0B21lDMmjkDANDY2Ij9BQeg1xtkC06NRoMHZv3C7VrNmjkD8+bMxmCZfwzIEQQBGRnpuH/mDJdr31JVtQ3VNTYWnHTV8Fhw1l6sg1KhgFod+BefmYVZmKXrZjl1+gwMxjJYrFYUHj7aakOFswEHgFvjhVxjTcttBkMZTp0+A7vdgcLDRxAVpWm1WeTgoSOYN/83AIDNGz/qcMG5bfs/MGBAf5fiy2nw4IH407OL8ODD8xAZGYmJd94OnU6H519YiuTkJDw46z589Mnn+PDjz5GSkux2XWJidHhl2YsAgFVr1mH1mlzpe0VFxSg/X47SUr3LMefNnY3H5j6CV5oVSQZDGb7513fYvPlLvPfuaiQmyhc6U3LucsmXnTVUun41NTasf+9DlJvMmJpzF0aPuhEFPx6UPrt6bS6OHT+B119bgtNnzrrs1+1nabViz/f78Ld33sNzzy7CzWNH47sdu6R8Ly99Da+/8RZstbUYecNwadve/QVuBaecqTl34blnF7lse/6FpdhfcKCVT1zm7bWSs3d/AfR6A15/bYnXnyG6GngsOE+d0SO6WyQy0pL9kYdZmIVZQjTL408sxpa8bQCAuybfgx92/wupqe4ZHn9iMfK2bgcApKYku4zbsXMX5i94vM1tq9euw/MvLoMoirgrZzo2b/wQOZMn+vTcPL2TmpiYgG1bP8fPfn4/iotL8Nwzi7D+3VW4cdR4rFzxOubNmY3UlOQ2rwsAzJsz2+U9wql3z0R21lA898xTHjOuXrsO+wsOYtvWzyEIQptjbx472iWf8/o5zwMAXnhxGYbfOM7lc873FltuB9x/lt/t2IWHZj+G73f/Ez1SU6Tjjh3TlG/5qy9Dp9Nhf8EBbN74obTNH9pzrVry9v1XoquNx4Izs3cqys5fwKkzpcjs3cMfmZiFWZglBLMsf+UlpCQn4djxE/jrm6+02hxz7/RpePaPvwfQdPfyoUcew3PPPIWxY0ZjzJhReHfdSmnbseM/uTXbzH10NrRaLZYsfQ3rc1dh5MgRrWYaO3YU9u75F4CmdwE7ypuiRBAELH/lJWg0GrdmFkEQMHbsaNmmoebW/O1drFn7rvT1yZOnUVBwAFu/dG0akm1wEQGIotcFlADh0uN/9/Nwat7444lKpXI5t7FjRuG5Zxbh4UfmSz9fADCZK6TmHb3eAJutFjeMGg/AtQmpZZPP2DGjXLKsXpuLvBbXRX/pMXtbFj65GB9/8oXLcZtn9nS+7S1Qia4WbgWnucIK8wWLy7bq6lrY7Q4IgoD0nkkIC1P6JRyzMAuzhE6Wvn37IDUlGQaDsc3mmAXz50jNJHq9EceOnUBlZdMj9hidDtcOuEbaZtAbYSo3uewvNTUZfTP7QKVSYfCggS4NKS01b1zxJWcjzKz770Xfvn2wv+AAjh07gWsHXCPli9HpgAzgj8/+GbPuv9etOQZoejdTfPRyBdha05C3DS5Xqvn1czbqtJQzeYLsHeYYnQ6jRo7A7IfuR97WfFgsVuRMnujSJFVUfA7FxSWYMX0aXl66XPpzALg2+eRtzXdrRsvKGup2XVrr5gcu/4y+2LhF9rNA0z+Annr6OTy9aGGbf66IyJ3MHU7RbXoKEWKrHZi+xSzMwiyhlcWz/H98I00KbrFYYbPVunxfExWJWfffi+MnfgIATLjzNr9nbI+i4hLkbd2Omhob3H4QXoyz2WzYuClP6p5ueQdNkNm2/8cD2P/jAURpNLh7Wo5L44+v5Od/Db3B6HIHMf+rb5CSnNTqKw3ORp2p0+6DJjLSdZzQ1GTV9NvLv2/5WQAwGsrc3s0cnjXU7Z1auXGA67WfcOdtyJk8EVNy3DMfKjyM1WvexQcbPkHO5InI6OA7v0RXI7eCMz5Oh/i4y/9yq71Yh7LzF9DQ0IA+vVL9Go5ZmIVZQiuLN/Lzv8aePXulrzMze0MXc7npJ+pSofHGmyuQkZ6GCRNu7/CxLBYrTp5qujPWN7OPT1aiKSouQV7e9qZ5JBMTYDAYYTKbMWBAfxw/cUJqamo5zqmmxob3P/gY5TLzQ6pUKugNRpdGouYSE+Jx5x3jWy04nVkGD7oeKtWVT1oyZfJEPPfsItjtdhw7/hOOHf+p3ftQqcIweND12LNnL/QGI2w2Gz7+5Au3Pwee6A1Gt+JSbzDKjpX7Ge0vOACVSoVrB/SXGp0GDxqIxYuewIiR45CelsaCk6gdvGoa6hYVGfD3zpiFWZgl9LLIWf7qy253xJrfwSsvN2NSznS8/dZyFBQcxMInF2Pzxg87dKwdO3dh6t0zAcBnzUU3jxmNsXmjpHNYvTYX+wsOYn2ua1NOy3FOiYkJnkl98AAAIABJREFU+DLvsw4fv613Cp1Zvsz7rFPfPXT+jEr1Btx2683t+mzz833+xWVS0xDQvvcjV6/NxZq/veuyTRRFTJH5Gcv9jJ5/cZlboxMRdZxXTUPKVuaH8zdmkccs8phFXjBlkSdIf/E7G0MWL1rosmJNUze04Pyiw0cSxcud1b5cGMZ5Ps7Vc5a/8hK6JyZg65ZP8eZfV0JvMGLenNmtFlTNC6HmTUOtkWsamjtnNtK/+tp11Z5WGomcTU3rc1fJrtAjnUcrDTSJifHYuuVT2O12pKakyI7ZsXM3Roy8FQCwYP6jmHDn5TvVgiBIx/j5tBxMmjKjXatGLX/1ZTzbSud+a+9etvwZ/bD7n25Na1fKbnfg+H+Kkd6zu+w2nbbbFR+DKFh5LDgjI8L9kcMrzCKPWeQxi7xAZsmZPBGRmkjMX/A4gKYVepzNMTExWixb8jx2/nu31HWtUoVh8qQJ0vyYzlV7nl70BAYPvh6pKcmI1ES6NXIMHnw9nl70BJYsew12u6PVxpXBg6/HyhWvS7/3lZar5zg74ocMHoh7p0/D99/vw/wFj0On07bZkGLQG1FfX48FbawCtOLttTDo3R8dp6YmY/z4W6RVe+x2B1KSk9z25VxByLkSktzj+JMnTyM7a2irnf0qlcqlketQ4RF8sOETl3NLT++JOY8+BAAYP/4W6S5ie1caeuvttQCAMWNGSX8OrmTGAee5Dc8eBpvN5tLUlJ6e5vLnr70USgW6J8bCXGFFpaUadrsDRSVGxMVqER6u7nBmoq6AKw0Rkd9kZw+FSh2Gt1asvbTl8m1FZxPIWyvW4FBlU7dzZGQkHph1b7MCTHTZlpGeBpU6DO9/8InLcTLS0/DArHvx8pLXUF9vbfXuZUZ6muxk7Z1lf8EB7C84ALvdjpoaG2bdPwODB7l26E+ccDvsdofUtPLBhk+gUqmQnTW01Sl8Ovr4u+V1ycoaiokTbndpTDLojUhP6+my6o6Tc1zTykCu2SbceRtMJjNWr3V/n/RQ4RFs3LgFv/nvX0k/S7lr37x5p/m1cmbO/+ob2O12ZGcNlbIUFRVj7JjRyMjoKTX0yC0o0FxbzVRy57E9/2scO3YCY8eOlvkz6T2lQoGkxFiUOhqkxj3FpW3+mrWCKFAE0V4p6quMGPHOOKyc9Aam9PPtBMlERFeL1WtysXptLhIT4t2ageSUl5vw0OzHUG4yN03yPtf1sbhzf57IffZKjtty3NNPP4GbZR4xt5Wv+TVYvSYXx47/hNdfc30k/93OXViy5LVWr9XjTyzGtQP6Y97c2bJZmp9HWzz9PFo7j7FjRrtl7iiD0Qxb7cWgfZeaqLOx4CQiIiIinwrmzgEiIiIiCgF8h5OIKIQ0X/GnZRPSocIjWPH2Wmlsa81URESdjXc4iSgo2GxNDTNFxSVejc//6hvZVWN8tb+uIj//a+zb/+OlddBbdkuJ0vbt+V9j//6uf75E1DWw4CSioFBZacXvFz2LQ4fc1+OW89aKNcjL2+63/XUlUyZPxKq338Bflr7g0k09eNBArHr7Dax6+w3ZtdqbE0URNTW1cDgafB2XiK4CLDiJiMiN3e7AoaOnYbFWBzoKEYUAFpxE1CUtf21Ju6b+CXbf7dyF4TeOw/Abx+G7nbsCHYeIqFN5bBoqNZgQEa5CfFz7J7ntbMzCLMzStbNsyduOvK2XH1v/esEct4nQm4/T6bRY/PQTspNs5+d/jfT0NEzJ6VjTS8tjyHlrxRqkp6chI6OnNFl988yVFgteXvIaLBYrAGDwoOvx6wVzXY5RXFyCWZcmLrdYrMiZPFE2s6XSKr1Daqm0duiciIiClVdd6lXVtRAEBeJio32dh1mYhVlCNEv+V9+goEVTTv5X/4Td7nBZUSf/H98gMb5pzWybrRYfbPgEOZMnIuPS8pbN95edNbRDBWfzLM5jFBWXuK3sk//VNwCAsWPdJzl3ropjs9W6bPtgwyfSKjYFBQfwxaYtgABpXEHBAajVKky48zaX/WVk9JTWP8/I6NnucyIiCmZuBWd9vR119Xbpa220BoYyM4rPGRGuDoNGE9HhZdXai1mYhVlCJ8tbK9YgO2soVr39hrTt8ScWY//+A64FZ/7X+N0Tv8Fzzy6CXm/EiJHjkJ6W5lZwdlYW5+o0rXWz7ys4gMzMPi65AeDQoSN4eclr2LvnW2kd8C152zF/wW9x67ibpWUTi4pLkJe3XVrZ5vkXluKtFWvcCk5nQw8RUShyKzj1RjOKSoyygw8dPY3sIf2hVre9Tm1nYRZmYZbQytKS3DKBy19d0uHH5B2RmJiAbVs/x9Rp98l+/7E5s/Hcs4s6vP+bx4zG5k0fdfjzREShwK3gTE2OR3yc1mWbocwMm+0i+vXpCZXKf3PFMwuzMEtoZQk15SYz7sq5BypVU8FusVgCnIiIKDi5/U2jVqtc7naUGkxQq1RI6BmDqKhIv4ZjFmZhltDKEmqiNBo8MOsX0Om0LttiYrRtfEreocLDso1JREShwOOtDQFAdDdNUDQ6MAuzMEtoZdme/zUSExKQnT3U82Afsdls+GLjFtmmIU80mkjMmnmv9A5nUXEJduzo2JRGRUXnsHptLgAgZ/LEgBWcVdU22O0OdGv2jxHntrjY9hfSRESAFwVnakqCP3J4hVnkMYs8ZpEXqCx9+/YBAOzb/6O07ZPPNmHkjcP9XnA2z2KxWJG7fgOKi8+1ax8xMVpce+01OHb8BPQGAwCgsPAIPvlsEyZMuF1qGmrP/oZnD5N+HyjV1bWwVtUAaFptqPZiPaqqa9HQ0MCCk4g6jC9vEZFfLH/1ZTz/wlKMGHmrtG3zxo/82iAklyU1JRl793yL+Qt+2659jB0zGuvXrcKIkeOgNzQ1ZU2ZPBHb8j7rUKaxY0Zj755/deiznSklOR5qdRgKj54GAJw6U4qMtGRk9u4R4GRE1JUJor1S1FcZMeKdcVg56Q1M6ef///MnoquDwWCUijMA6JvZR3r/0W6349jxn5CRntbmNqeTp84gShOJlJRk2WO19dnmWVQqFa4d0B9Fxefc9uftMez2pmmndDod+mb2djlGja3W47bONHXafdhXcACpKclITIiXpmMCmlYzWvjE4kvndhqP/88C2Q58h6MB1qoaHP9PMdJ7JqF7QkzAZjIgotDAgpOIKITkf/WNNKdolEYjTUIPNL1j6pzMHgCys4a2+t5qQ2MjTGYLdNooRISrfR+ciEIaH6kTEYWQlhPKN5eRniatZuSJUqFAUmJsZ8UioqucItABiIiIiCi0seAkoqAmimLAj+/8daX7ISK6WrHgJKKgVV5uwqSc6fhuZ8fmtuwMa9a+ixEjb8WknOkoLzd1aB/BcB5ERIHEdziJKGjZ7Q4cKjwCS6U1IMd/a8UamExmzJs7G1EaDaKi2je3ppO/z8NcYcHFOjt6BNH8r0R0dWPBSUQhybmCUI3NhuFZwzo0uXz+V98gO2uo1402waKquhbVNTYWnEQUNDwWnLUX66BUKIJiDjZmYRZm6dpZ9HqjtCoP0LTiT4xO5zLm5MnTqLRYEKPTua3WU2mxoKioBNddew2Kikqkcc6Vg1zGVlrx1NPPQW8w4k/PLGpXwWm323H02AlUWizQG4zYt/9HqFQqXHftNVCpVG7jnPNwtpbFk/ZcFwCyWYiIgpnHdzhPndFDbzT7I4tHzCKPWeQxi7xAZRFFEWvW5uKGUeOlXzt27HJpphFFEQt/9wfcMGo8Fv7uDxDh2mizY8duTMqZjvPlJtdxrTTkCIIAQRCaFpBvh/JyMyZPmYEdO3dj9aXMk6fMQHm563U7X27C5CkzpPNpK0tr2ntdnFnOd/B9UiKiQPBYcGb2TgXQtLxZoDGLPGaRxyzyApVl4ZNNK9zs+/5b6dcXm/Kwem0ugKbGmrsm34O7p+Vg3/ff4u5pObhr8j0oN7kWeeUms/y4FgVYYmI8tm39HPu+/xbz5jzSrqzOz948djQem/sI9n3/LbZt/RyJifHSmO927MJDDz+G9bmrpPNpLUtnXpd933+L9bmr8NDDj+G7HWxCIqKuwe2RurnCAnOF64vtVTU22O0NEAQB6T2TEBam9Es4ZmEWZgmdLHdNvAMJ8fHIGjbkcjaTGUZDGYCmxprCw0fx6wXzkDVsCBLi42A2mfHSktdc9hOl0eChB+7DbbfejPT0NJSWGlB4+CjsdofLOJVKhUEDr+tQVudndVotUpKTXDI79cpIw6O/fBAjbxwuPfpvLUtbTp06g+ysoS7HmPmLe5AQ31TctrwuQNMj+OMnfoLFEphmKiKi9pJ5h9P98ZMAob1PpDoJszALs4RKljvvGI/9+w9g1Zp10rai4pJWl1ZMT0/D/TPvxetvrnDZrtFE4v6Z9yI1VX59c39JT0/DtIR4qTEJAAoLj7R7PxMm3A5TucnlukyccDsy0tNcxuV/9bX0nqfFYkWNrfYK0hMR+ZdbwRkfp0V8nFb6uvZiHcrOX0BDQwP69Er1azhmYRZmCZ0sJ0+eRt7W7cj7Ml/aVlx8rt37sdvtOFR4GJqoSLfGmpbjnA09qSkpnV6gVlos2L//AHLXb5DuNDqbetrj17+ag9Vrc7Fm7bvSNrVKhQl33u6SOf8f/8T3P+yXvu7Xtw9iYrQgIuoKPHapnzqjR3S3SGT27uGPPMzCLMwSolkWPrkY2VlDsXfPv6RtU6fd1+ZnWjYNAU3vcE6aMgN//2IDciZPBCA2NQa1HFduxqSc6VKX+nPPLrric2hux47dmL/gt9i751upMNyStx3zF/y2XfsRRRFzH33YZeqlqdPuQ3HxOZfMy195GVNyJrp8Tu68iYiCkVdNQylJ8Z6G+QWzyGMWecwiL5iytOW7Hbtkm4YSExKwLe8zfLEpD8NvHIcvNuW5NfR0JQufXCw1CHnL2UjUvGnIbnfg0JFTsFir29xGRBQIHu9wRkaE+yOHV5hFHrPIYxZ5gcryX7+eh927f8C8+b+Rto0dOxq2Ghv+34rV+OXsB/DKshexY+cubMnbhpgYHR564D63piGVKgyDBl4PQRAwetQNyEhPk20OionR4pVlL6LGZkP2sPZP+u7JkMHX4w+Ln8RLS169PA9njE7a9tjc2Rg8eKDH/dw18Q7Z63Lbrbe4nIfzugBNTU1Tp05Cr4zL73kqlAokd4+DucKKC5Yq2O0NOFtiREKcDuHh6s48dSKiduNKQ0TkF3feMR719XYYy8qkbRPuvA3FxedQXFICjUaD+2fOQKXFgsLCI+jVKx2zZs6AyVyBjIw02f21xbm/KzFx4u1IT3M/NtDUNDRr5gwsWfY6LJfe3XRmXrLsdaDZ4+6oqEg8+MB9rZ6H3HUZPOh6l/NwXhcAiI7uhlkzZ0DX7B1WpUKB7omxcDgapKYwpbJpm79mRCAiao0g2itFfZURI94Zh5WT3sCUfhM9f4qIKAB27NyFl5cux/rcVUhM6JqP0P3BYDTDVnsxKN4ZJiICeIeTiLqQsWNGY1ve6EDHCHopySzGiSi4eGwaIiIiIiK6ErzDSRTituRtw5a87dDptPjD008iJqb1uSuJiIh8gXc4iUKcIChQcq4UGz78FDauTkNERAHAgpMoxOVMnoAF8+d4NdbhaEB1TS1E0X3CdSIioo5iwUlEEou1GoVHT8NudwQ6ChERhRAWnERERETkUx4LzlKDCeYKiz+yeMQs8phFHrMQEREFB48FpwCgqroWFResfojDLMzCLL6QkZGGn/98Kr7YuBlFRSUByUBERFcvt2mR6urtqK+3S19HR2tgMJpRfK4MarUKUZoICM2WbPMlZmEWZukcgwddj6d/vxAjRo5DRka67BKLREREvuJWcBrLzDhbbJQdfPjoaWQN6Q+1WuXzYMzCLMzSeURRRKPYCEGhgB/rXCIiIgAyBWdKUjzi41wnhtYbTbDZ6tAvsydUKv/NFc8szMIsnWPHzt340wtL8F7uKmQNG+LXYxMREbn9radWq1zuvJQaTFCrVEhMi0GUJsKv4ZiFWZilc1gsVpw48R9c078fdDqt349PRERXN4+3WQQA0d00iI2J9kMcZmEWZgmEigtWt7uuzm3R3TQBSkVERKHCY8GZmpLgjxxeYRZ5zCKPWbx3obIKSqUSYWFKiKKI6ppalJsroY2OYsFJRERXjBO/E4U4URQhio1tjsns3QOCAJw6Uwq73YHCo6eREBeDlKR4P6UkIqJQ5t/OBSLyu9VrcvGX1970OC4lKR5hSiWKzpXh2v4ZiI7mnU0iIuocLDiJQtyIEVl4+qmF0Gg0iIlpvWFIrVYhIV4HlSoMWm0UlAo+ACEios7BgpMoxGUNG+L1VEjh4Wp0T1T7OBEREV1tWHAS+UCp3gC93iB93a9vJmJidG18goiIKHTxmRmRD6z923qMvOl2jLzpdtwwajx27Nwd6EhEREQBw4KTyAfmzZ2Nfd9/i215nyExMbinRCIiIvI1PlIn8oGU5CSkJCdBrzdCFdb2f2bVNbUoK7+AjJ5JCAtT+ikhERGR//AOJ1GA1dXV43z5BTQ2tj1XJhERUVflseCsra1DXb3dH1k8YhZ5zCIvmLIQERFdzTwWnKfO6mEwmiGK/ojDLMwSmlmIiIiuZh4Lzr69UwEAp86W+jyMJ8wij1nkBVMWIiKiq5lbN4O5wgJzhdVlW1W1DXZHAwRB8GtjA7MwS1fNQkRERJe5t88KAgRBaLFJgABA0WK7zzELs3TVLERERCRxKzjjY7WIj7283nJtbR3Kyi+goaEBvTNS/BqOWZilq2YhIiKiy7xqGhIEILN3D3/kYRZmCckscuSamdjgREREocjjxO99e/eAQhEcjyOZRR6zyAumLHJOnSmFRhOOcLXKbVtqMlcnIiKi0OGx4IyIUPsjh1eYRR6zyAumLHLi47SwWGtgMlvgcDTg1Fk9ukVFQtstKtDRiIiIOhWXtiTygX37fsTe/QWwWKyosdlkx8TGRKNRFFFVbYOApganuJhoREVF+jcsERGRj7HgJPKBHw8eQu67GwAA1/Tvh5gYney4+FgtwpRKFAPI7JUKlYr/SRIRUejh325EPjD30Ycx99GHvRqr00Zh0HV9fJyIiIgocDx2qRMRERERXQne4aSQsXnLl9i8ZRt0MTo8s/h3rT7GJiIiIv/iHU4KGUplGAxGIz766DPYbLWBjkNERESXsOCkkDF50p2YP+/RTttfXb0dtbV1nbY/IiKiqxULTqJWGIxmnDpbGugYREREXR4LTiIiIiLyKY8FZ6mhHOYKiz+yeMQs8piFiIiIgpnHglMQBFRV16LigtUfeZiFWa5Ir17pmH7PNHz2xSacLSoOSAYiIiJy5TYtUl29HXV1dunrblEaGKvNKD5XBrVahShNBARB8Es4ZmGW9ho08Do89bvfYsTIcejdqxd6ZaT77dhEREQkz63gNJaZUVRS5rJNFEUAwOFjp5E1uD/UapVfwjELs7SXKIpoaGiAMkwJQeG/QpeIiIha51ZwpiTFIz7OdcJsg9GEGlsd+mX29Otaz8zCLO21Y+cuPPf8EqxftwpZwwb79dhEREQkz60aUKtVLnekSg3lUKlUyEiLQZQmwq/hmIVZ2stiqcJPP51E/359odVqZcdwRSIiIiL/8qppKDpag9iYaH/kYRZm8bkffzyEv617T3ZFooaGRhjPV+BiXX2b24iIiMh7Hp93piYn+COHV5hFHrO0T48eqejfvy+qq6rdvtfY2AiTqRIQRdTX2+FwNMBaVYPz5RcQGRGOiHB1ABITERF1bZz4nUJGY2MjGhobPI775SMP4JWlL0AZFga06CtSqcIw8Lo+MFdYYSgzw2KtwYmTxRjQLx06bZSPkhMREYU2/3Z0EPnQ6jW5+Murb3o1bs8P+7B962dITIiXHZPZuwfUahVqbBfRPwDNT0RERKGEf4tSyLjxhmz8YfGT0Gg0iImRbxhyjsvM7I3rrh3Q6piICDVSkuNhtzugCUDzExERUShhwUkhY9iwIRg2bIhX47zRLSrySiMRERERWHDSFSot1eNcqV76un//voiNiQlgIiIiIgo2bBqiK/K3de9jzC0TMeaWCRh50+3YuXNPoCMRERFRkGHBSVfksbmzse/7b7Et73MkJgb/lEhERETkf3ykTlckKak7kpK6Q683QhXW9h+n6ppalJ2vQEZaMsLClH5KSERERIHGO5zkN3V19ThvqkRjY2OgoxAREZEfeSw4bbV1qKu3+yOLR8wiL5iyEBEREbXkseA8c1YPg9EMURT9kYdZungWIiIiopY8FpyZvXsAAE6d0XsY6XvMIi+YshARERG15NblYaqwwFxhcdlWXV0Lu8MBQYBfGz6YJfizEBEREXniVnAqBAEKheuNT0EQIMB9u68xS/BnISIiIvLEreCMi9UiLvbyOtS22jqcD7uAxsZG9M5I8Ws4Zgn+LERERESeeNU0JAhAn16p/sjDLF08ixy5ZiY2OBEREV09PE78ntm7BxTK4HhMyyzygimLnFNn9NBowhGuVrltS03m6kREREShzmPBGRGh9kcOrzCLvGDKIic+TguLtQYmswUORwNOnSlFt24aaKOjAh2NiIiI/IBLW9IV2bu3AD/sK4DFYkGNzSY7JjYmGqIooqraBgGAQqFAXKwWUZoI/4YlIiKigGDBSVfkYOFhvP/BRwCAawf0R2xsjOy4uFgtlEolSi69a6pS8Y8eERHR1YJ/69MVmfPLhzDnlw95NVanjYJO28fHiYiIiCjYBG+nCRERERGFBBacRERERORTLDjJr2pqbMhdvwFnzxYHLMPevQV46+21yF2/ATU18o1OngTDeRAREXUVLDjJrywWK/7wxxdQePhoQI5/4qf/4MttX+H9Dz7C519sRm1tbYf24+/zqKu3w1Zb55djERERdTY2DVGXIYoiGhoaIIoiFEollB1YN/53v38G2VlDsXvn1z5I6DsGoxnVNTYMvJZNV0RE1PXwDid1GSaTGRMn34PhN47D6jXrAh2HiIiIvOTxDmepvhzhEWokxOn8kYdZuliWv2/eir9v/lL6+n/+ez6GDhnkMubNv67EwYOFGDJkEGbcM83lewcOFmL9ex/i2T8+hXff+1Aa95v/nu92LLvdgWPHTkBvMOJ8WXm7clZWWvDCn5fhwKFClJSWoqi4BDExOjz7x6cQE6NzG1dZaQGAVrN40p7rAkA2CxERUajwWHAKCgWqq2shCALiY7X+yMQsXSTL1i/zceBAIaKiNNK27flfo76+HjeMyEZNjQ2ffLYRRqMRUVEaGI1GrHv3A5cViUpKSvFO7vuIj49HdXWVy7h7p9/tsu+oKA0emT0LFosVI0ZktyurIAjQaCKhVCqhVqkRFaWBRhMJQRCkMWfPFmHT5i8hiqJ03NaydOZ1AZpeF8hdvwHTpk5Cr14Z7To3IiKiYOdWcNbV21FXVy993S0qAsZqG0rOlSFcFYaoKNe/pH2JWYI7y7f/txPXXNMPzz27SNo2ddp9qLtYhxtGZMNiseKPz7yIlSvewJScidj57z34zeNPuTXq1NbW4ouNm/Hm68sw5qaR2JK3HfMX/BYT7rjNpWjT6bT48wvPdCir87OHDh1BdtZQl8xO50oN+Oaf/4d1a99CQkI8ALSapS2rVq9DdtZQ/PXNV6Rtv3vqGRwqPCJ7XQBArzdixMhxyOzTmwUnERGFHLeC01hmRlFJmcs2URQBAIePn0XW4H5Qq1V+CccswZ3llWUvoqGxEXa7XdrWeCmHnDE3jcSWTR9jxMhxLtsT4uOxZdPHSE1N9llWb4y5aSRuGv0hGhoapHNqaHC0ez/KMCUAuFyXZUtfgKLFPwIaGhzSGIfDjtavHBERUdfmVnCmJCe4vQuoN5pRY7uI/pk9/boGNrMEf5bVa9Zh5ap3pK/PFhVjRPYwvx2/s5lMZsx84FGUl5sAANaqqnbv4/VXl+Dd9Rsw/MbLhfX/vvEX3HLzTS7jHn9yMZ57fgmApvdTTSbTFSQnIiIKXm6ViVoVBnWzgqVUXw6VKgwZaUnQaCL8Go5ZgjvLm39dicoLlfjtbxZI2/73ryvbvZ9KiwULn1yMRU897tZY4zKuWUPPz6ZOws+mTu5Q7tYcOFiIlavewYzp06BWqwEABw8W4tPPNrVrP716peNnUychPSNN2rYlbxsqKytdMv9syiQMaXG+bZ0/ERFRV+VV05A2OhyxMdH+yMMsXSjLN998i+ysoXjk4VnSto0bt7Q6/uzZInzw4WcuTUPA5Yae7flfY+e/96C6uhqPzJ7l9s6kzVaLjz/5AnqDERnpaZ1ecJaUlGJL3jY8+8enpMf7W/K2t7vg3PplPhITE1yuy9Rp9yG6WzeXzLeNHye9w+lsJGr+CL+hoRHl5krEaLvJbouIUHfoPImIiPzNY8GZmhzvjxxeYRZ5gcpyzYD+AIDde/ZK27onJQIAjp/4DxLi45CdPRTnz5/H7j17cfToMWzctMWtaUinbWroef1/V2Dzli9x002j8MrSF9yOp1arkJ09FBkmM3r27NHp5xMbG4NBg65H4eEjKCouAQCcP39e2hYZGYHY2BiP+/n2u3+jm0aDhoZGaVv3pEQps/M8nNcFAKxWKz7+5Av065spNQ01NjbCZK6EKIqoq7fD4WiAxVqN8vILiIwIZ8FJRERdBlcaog57ZekLePGlv+CW8ZOkbRs/ex8FPx7E03/4EzZ+9gE2b/wId0+fhV/91xOYPOlObNn0EUaOuQMKhXsXvVyR2VxCQjw2b/zoijIrw5RQKOXXOxhz00isW/sWRo65AwaDEQAwedKd0rYVf30VkydNAAAIAhCmUrV6HnLXxflZ53k4rwsApKQkY8/OfyAl5XLjlEoVhoHX9sGR42dgMjfNC/rTqXN+bVAjIiLqDIJorxT1VUaMeGccVk56A1P6TQx0JupCysrOo+z85UnYe2Wko7YsjhhgAAAJAElEQVS2FrW1F9GrVzoA4OzZYlirqqCNjkaPHqk4efIUevRIhVYbLU07tHfPt37pUj97thiRkRFISuou+3273YGTJ0/B7mh6tC2Xufm45tuak7suLcc5rwsAqMLC0LdvpmzD18W6epScOy81hUVGhvttCi4iIqLOwIKTAqqkpBS7dn+PKTl3QaOJDHScoFVdUwu73REU7wwTERG1Fx+pU0ClpfXAL9J+HugYQa9bFItxIiLqulhwdkEl50px7pwearUKgwZeJ03hQ0RERBSM5LsnKKjlvrsBN996F6ZOuw8mU0Wg4xARERG1iQVnFzRv7my8/trLgY5BRERE5BUWnF1QUvdEZKSnezW2uqYWp86UwuFo8HEqIiIiInksOENcXV09zpsq0djY6HkwERERkQ94LDhttRdRV2f3RxaPmIWIiIio6/FYcJ4pMsBQZoYoiv7IwyxeUigEqFQq2B123r0kIiKioOax4Mzs3bT+86kzpT4P4wmzXDZ27Gisz12Fh2Y/hh07dwUkAxEREZE33ObhNJktMFdYXLZV19TC7nBAEARkpCUjLEzpl3DM0jptdDT6ZvbByZOnYbVW++24RERERO3lVnAqFAKUStcbn4IgQIAAhUIB+HEJZ2Zp3dmzRdi0+UvcO+Nu9O7lXcc6ERERUSC4FZxxsVrExWqlr221FxEW1tTl3Dsjxa/hmKV1hYeP4ZVX38TePd8iNTXZ78cnIiIi8pZXTUOCIKBPr1R/5GGWTiKKoltDk9w2IiIiIl/zuJZ6Zu8eTY+MgwCzeO/UmVJoNBEIV6vctqUmJwQwGREREV1tPBacEeFqf+TwCrN4Lz5OB4u1BuUmCxyOBpw8UwptNw200VGBjkZERERXGY8FJwWfH37Yj7wvt7c5JjYmGqIoorrGBgGAUqlAbKwWUZoI/4QkIiIiuoQFZxdUeOQoDh8+iuHDh0Hd7JF5S3GxWiiVSgAC+mSkQqXij5uIiIj8jxVIF/ToIw/i0Uce9GqsThsFnba3jxMRERERtS54u16IiIiIKCQEdcG56e9b8cijC/D4E0+jstLi+QNEREREFHSCuuAMD1fDZDbjk083wmarDXQcIiIiIuqAoC4475p4B+bNecSrsQ5HA6qqbZzYnIiIiCjIBHXB2R4WazUOHzsDu90R6ChERERE1EzIFJxEREREFJw8Fpzn9OUwmdmwQ0REREQd47HgVCoUqK6phbnC6o88bnr3Tse99/4cn3z6Bc6cLQpIBiIiIiLqOLeJ3+vq6lFXb5e+joqKgLXahsrSMqjVYegWFQlBEPwWcOD11+F3C/8HI0aOQ2ZmH/TuleG3YxMRERHRlXMrOI3nL6C4xOiyTQQgiiKOHj+LYYP7tbmcYmdrbGxEvb0eKrUaCiVfOSUiIiLqatwKztTkeCTE61y26Q0m2Govol9mT7+vx/3djl149k8v4b3cVRg6ZKBfj01EREREV86telSpwlyKynP6cqhUYchISIImMsKv4QCgqqoap06dQWaf3oiOjvb78YmIiIjoyni8XalUKKCJDkeMLjiLPXOFFeoWd12d26KjNQFKRUREREROHgvOlOR4f+ToMIu1GgqFAkqlAqIooqraBnOFFdpoDQtOIiIioiAQ1F04DQ0NsDvsbY7p0ysVgiDgTJEBdrsDR46fRXy8DslJwV0oExEREV0t/NsB1E6r1uTiL6+84XFcanI8wsKUKCox4rpreiG6W6Qf0hERERGRN4K64Lxp1A14/k+LoYmMREyMrtVxKlUYEuJ0UKvCoI3WQKEI6hu3RERERFeVoC44hwwZhCFDBnk1NjxchcTwGB8nIiIiIqL2ci84S84BJaWu29J6AGk9XTbV1dXjYl2zFYk0EQgLU/okZFtstouwOxoAAAqF4PeVkIiIiIiobe4F53sfAi+/CogiYLc3/e8zi4BnF7kMM5RVoKjECMWl4u66a3sjPlYLUWxalciNAGlsc42iCIiAIMClUBRFEbK7aTHuTLEBFRVWiGh6tJ49pL9fV0IiIiIiora5F5xzZgM/ywHKTcD9jzT9bytidN3Qt0/Tnc+I8KYiz2KtxsnT59zGqlRhuO6aXi6TytvtDhw9cRZ2uwOpyQlITUmQvnfqTCkqLdVu+2k5LrN3D/RKT0GlpRrF58q8OGUiIiIi8if3grN7YtMvvREIa/sVT6VSgSiN6+pDDQ0NqKu3IyMtGapmj9idc2U6VdfUQm8woXtCLBQKAbUX63FOX46eqYkAgIt19YiMDEdCnGuzUFSUawd6RLi6afzFOi9Ol4iIiIj8zSdNQwqFAt0TYlp9tG2tsqHSUgW1OgyJiTEIUypRccEKi7UGxjIzEhNiAQBRmkgkdY/zRUQiIiIi8pOAzB9UccEKa1UNeqWnIEzZdBc0LlYLbbQGZ4qNaGhoCEQsIiIiIvIBn02L1NgoorGxEUBTk0/HOscv7+PK9kNEREREgeKTgtNud6Dw6CmpOGzeXNQeeqMZJrNF+rpvn56I0XXrtJxERERE5Hs+KTiVSgVSkhOkpqHw8I5NU6TTRrk0DUVGhHdKPiIiIiLyn4A0DXmLTUNEREREXR8XHSciIiIinwpIwSkIAgQIaGy8vJSQc2UhhYJNQUREREShJCAFZ2pyPBLidSg8egp2uwMAYDCaYaqwYNB1mS6rERERERFR1+aTys7haMDJ06VQNFtZKEypRK/0ZISFKaFShSFGF41GUcSZIgMaRRER4Wokd4+DJpKNQUREREShxL3g/GEf8MN+wGIFbLY2P3zxYj1KDeUAgPhYHSIi1IiICEdKUrz7gcIUQLOn5eHhKiQmxKCurh4ORyO00RqXKY/iY3VedbebKyy4WFePmpqLHscSERERkf+5F5xHjgOfftH0++uvbfrfNPc5NCPC1VCGKXHeVAkA6BalQUSEGlGaCPTt08O7gyuV6JWeIvu9lGT3olWOxVoDS1UNACC6m4YTwxMREREFGfeC85EHmn55kJwUh+SkwE9Z1KdXaqAjEBEREVEbOC0SEREREfkUC04iIiIi8ikWnERERETkUyw4iYiIiMinWHASERERkU/9fyCubQzMcvI3AAAAAElFTkSuQmCC;" parent="1" vertex="1">
                    <mxGeometry x="290" y="555" width="325.56" height="270" as="geometry"/>
                </mxCell>
                <mxCell id="43" value="&lt;div style=&quot;font-family: &amp;#34;consolas&amp;#34; , &amp;#34;courier new&amp;#34; , monospace ; font-size: 16px ; line-height: 22px&quot;&gt;&lt;span style=&quot;background-color: rgb(204 , 255 , 255)&quot;&gt;&amp;nbsp;&lt;/span&gt;&lt;span style=&quot;background-color: rgb(153 , 204 , 255)&quot;&gt; 和歌山那智勝浦町&lt;/span&gt;&lt;span style=&quot;background-color: rgb(204 , 255 , 255)&quot;&gt; と&amp;nbsp;&lt;/span&gt;&lt;span style=&quot;background-color: rgb(153 , 204 , 255)&quot;&gt; 串本町付近&amp;nbsp;&lt;/span&gt;&lt;span style=&quot;background-color: rgb(204 , 255 , 255)&quot;&gt; に&amp;nbsp;&lt;/span&gt;&lt;span style=&quot;background-color: rgb(255 , 255 , 255)&quot;&gt;&amp;nbsp;&lt;/span&gt;&lt;span style=&quot;background-color: rgb(204 , 255 , 255)&quot;&gt;&amp;nbsp;&lt;/span&gt;&lt;span style=&quot;background-color: rgb(153 , 204 , 255)&quot;&gt;&amp;nbsp;&lt;/span&gt;&lt;span style=&quot;background-color: rgb(153 , 204 , 255)&quot;&gt;記録的な大雨&amp;nbsp;&lt;/span&gt;&lt;span style=&quot;background-color: rgb(204 , 255 , 255)&quot;&gt;と&lt;/span&gt;&lt;span style=&quot;background-color: rgb(153 , 204 , 255)&quot;&gt;&amp;nbsp;&lt;/span&gt;&lt;span style=&quot;background-color: rgb(153 , 204 , 255)&quot;&gt;災害の危険&amp;nbsp;&lt;/span&gt;&lt;span style=&quot;background-color: rgb(204 , 255 , 255)&quot;&gt;&amp;nbsp;&lt;/span&gt;&lt;b style=&quot;background-color: rgb(255 , 255 , 255)&quot;&gt;迫る&lt;/b&gt;&lt;/div&gt;" style="text;html=1;align=center;verticalAlign=middle;resizable=0;points=[];autosize=1;fillColor=none;fontColor=#171717;" parent="1" vertex="1">
                    <mxGeometry x="22" y="210" width="650" height="30" as="geometry"/>
                </mxCell>
                <mxCell id="44" value="&lt;div style=&quot;font-family: &amp;#34;consolas&amp;#34; , &amp;#34;courier new&amp;#34; , monospace ; font-size: 16px ; line-height: 22px&quot;&gt;&lt;u&gt;&lt;span&gt;和歌山那智勝浦町&lt;/span&gt;&lt;span&gt;と&lt;/span&gt;&lt;span&gt;串本町付近&lt;/span&gt;&lt;/u&gt;&lt;u&gt;に&lt;/u&gt;&amp;nbsp;&lt;u&gt;&lt;span&gt;記録的な大雨&lt;/span&gt;&lt;span&gt;と&lt;/span&gt;災害の危険&lt;/u&gt;&lt;b&gt;&lt;font color=&quot;#cc0000&quot;&gt;迫る&lt;/font&gt;&lt;/b&gt;&lt;/div&gt;" style="text;html=1;align=center;verticalAlign=middle;resizable=0;points=[];autosize=1;fillColor=none;fontColor=#171717;labelBackgroundColor=#FFFFFF;" parent="1" vertex="1">
                    <mxGeometry x="21" y="240" width="530" height="30" as="geometry"/>
                </mxCell>
                <mxCell id="45" value="&lt;div style=&quot;font-family: &amp;#34;consolas&amp;#34; , &amp;#34;courier new&amp;#34; , monospace ; font-size: 16px ; line-height: 22px&quot;&gt;&lt;span style=&quot;background-color: rgb(204 , 255 , 204)&quot;&gt;和歌山那智勝浦町と串本町付近に&lt;/span&gt;&amp;nbsp;&lt;span style=&quot;background-color: rgb(204 , 255 , 204)&quot;&gt;記録的な大雨と災害の危険&lt;/span&gt;&lt;b&gt;&lt;font color=&quot;#cc0000&quot;&gt;迫る&lt;/font&gt;&lt;/b&gt;&lt;/div&gt;" style="text;html=1;align=center;verticalAlign=middle;resizable=0;points=[];autosize=1;fillColor=none;fontColor=#171717;labelBackgroundColor=#FFFFFF;" parent="1" vertex="1">
                    <mxGeometry x="20" y="270" width="530" height="30" as="geometry"/>
                </mxCell>
                <mxCell id="47" value="&lt;div style=&quot;background-color: rgb(30 , 30 , 30) ; font-family: &amp;#34;consolas&amp;#34; , &amp;#34;courier new&amp;#34; , monospace ; font-size: 16px ; line-height: 22px&quot;&gt;春夏&lt;font color=&quot;#ffcc99&quot;&gt;連覇&lt;/font&gt;を狙う大阪&lt;font color=&quot;#99ff33&quot;&gt;桐蔭&lt;/font&gt;が聖望学園に大勝し、春夏&lt;font color=&quot;#ffcc99&quot;&gt;連覇&lt;/font&gt;を成し遂げた１８年以来４年ぶりに１６強入りを&lt;font color=&quot;#99ccff&quot;&gt;決めた&lt;/font&gt;。&lt;/div&gt;" style="text;html=1;align=center;verticalAlign=middle;resizable=0;points=[];autosize=1;fontColor=#FFFFFF;" vertex="1" parent="1">
                    <mxGeometry x="10" y="40" width="830" height="30" as="geometry"/>
                </mxCell>
            </root>
        </mxGraphModel>
    </diagram>
</mxfile>